<?xml version="1.0" encoding="utf-8"?>
<!-- Generator: Adobe Illustrator 24.0.0, SVG Export Plug-In . SVG Version: 6.00 Build 0)  -->
<svg version="1.1" id="Calque_1" xmlns="http://www.w3.org/2000/svg" xmlns:xlink="http://www.w3.org/1999/xlink" x="0px" y="0px"
	 viewBox="0 0 85.1 85.1" style="enable-background:new 0 0 85.1 85.1;" xml:space="preserve">
<style type="text/css">
	.st0{fill:#FFFFFF;}
</style>
<title>2Fichier 57</title>
<g id="Calque_2_1_">
	<g id="Calque_1-2">
		<g id="Parametres">
			<circle class="st0" cx="42.5" cy="42.5" r="10.3"/>
			<path class="st0" d="M46.3,5v8c0,2.2,1.5,4.2,3.6,4.8c1.7,0.5,3.4,1.2,5,2.1c2,1.1,4.4,0.7,6-0.9l5.6-5.6l5.3,5.3l-5.6,5.6
				c-1.6,1.6-1.9,4-0.8,5.9c0.9,1.6,1.6,3.3,2.1,5c0.6,2.1,2.6,3.6,4.8,3.6h8v7.5h-8c-2.2,0-4.2,1.5-4.8,3.6c-0.5,1.7-1.2,3.4-2.1,5
				c-1.1,1.9-0.7,4.4,0.8,5.9l5.6,5.6l-5.3,5.3l-5.6-5.6c-1.6-1.6-4-1.9-5.9-0.8c-1.6,0.9-3.3,1.6-5,2.1c-2.1,0.6-3.6,2.6-3.6,4.8v8
				h-7.5v-8c0-2.2-1.5-4.2-3.6-4.8c-1.7-0.5-3.4-1.2-5-2.1c-1.9-1.1-4.4-0.7-5.9,0.8l-5.6,5.6l-5.3-5.3l5.6-5.6
				c1.6-1.6,1.9-4,0.9-5.9c-0.9-1.6-1.6-3.3-2.1-5c-0.6-2.1-2.6-3.6-4.8-3.6H5v-7.5h8c2.2,0,4.2-1.5,4.8-3.6c0.5-1.7,1.2-3.4,2.1-5
				c1.1-2,0.7-4.4-0.9-5.9l-5.6-5.6l5.3-5.3l5.6,5.6c1.6,1.6,4,1.9,5.9,0.9c1.6-0.9,3.3-1.6,5-2.1c2.1-0.6,3.6-2.6,3.6-4.8V5H46.3
				 M47,0h-9c-2.3,0-4.2,1.9-4.2,4.2V13c-2.1,0.6-4.1,1.4-6,2.5l-6.2-6.2c-1.7-1.7-4.3-1.7-6,0l-6.3,6.3c-1.6,1.7-1.6,4.3,0,6
				l6.2,6.1c-1,1.9-1.9,3.9-2.5,6H4.2C1.9,33.8,0,35.7,0,38c0,0,0,0,0,0v9c0,2.3,1.9,4.2,4.2,4.2H13c0.6,2.1,1.4,4.1,2.5,6l-6.2,6.1
				c-1.6,1.7-1.6,4.3,0,6l6.3,6.3c1.7,1.7,4.3,1.7,6,0l6.1-6.2c1.9,1,3.9,1.9,6,2.5v8.7c0,2.3,1.9,4.2,4.2,4.2h9
				c2.3,0,4.2-1.9,4.2-4.2v-8.7c2.1-0.6,4.1-1.4,6-2.5l6.2,6.2c1.7,1.7,4.3,1.7,6,0l6.3-6.3c1.6-1.7,1.6-4.3,0-6l-6.2-6.2
				c1-1.9,1.9-3.9,2.5-6h8.7c2.3,0,4.3-1.9,4.3-4.2c0,0,0,0,0,0v-9c0-2.3-1.9-4.2-4.2-4.2h-8.7c-0.6-2.1-1.4-4.1-2.5-6l6.2-6.1
				c1.6-1.7,1.6-4.3,0-6l-6.3-6.3c-1.7-1.7-4.3-1.7-6,0l-6.2,6.2c-1.9-1-3.9-1.9-6-2.5V4.2C51.3,1.9,49.4,0,47,0C47,0,47,0,47,0z"/>
		</g>
	</g>
</g>
</svg>
