<?xml version="1.0" encoding="utf-8"?>
<!-- Generator: Adobe Illustrator 24.0.0, SVG Export Plug-In . SVG Version: 6.00 Build 0)  -->
<svg version="1.1" id="Calque_1" xmlns="http://www.w3.org/2000/svg" xmlns:xlink="http://www.w3.org/1999/xlink" x="0px" y="0px"
	 viewBox="0 0 90.1 85.1" style="enable-background:new 0 0 90.1 85.1;" xml:space="preserve">
<style type="text/css">
	.st0{fill:#FFFFFF;}
</style>
<title>2Fichier 58</title>
<g id="Calque_2_1_">
	<g id="Calque_1-2">
		<g id="Dashboard">
			<path class="st0" d="M35.1,60.1v20h-30v-20L35.1,60.1 M38.1,55.1h-36c-1.1,0-2,0.9-2,2v26c0,1.1,0.9,2,2,2h36c1.1,0,2-0.9,2-2
				v-26C40.1,56,39.2,55.1,38.1,55.1z"/>
			<path class="st0" d="M35,5v35H5V5H35 M38,0H2C0.9,0,0,0.9,0,2v41c0,1.1,0.9,2,2,2h36c1.1,0,2-0.9,2-2V2C40,0.9,39.1,0,38,0z"/>
			<path class="st0" d="M85.1,45.1v35h-30v-35L85.1,45.1 M88.1,40.1h-36c-1.1,0-2,0.9-2,2v41c0,1.1,0.9,2,2,2h36c1.1,0,2-0.9,2-2
				v-41C90.1,41,89.2,40.1,88.1,40.1z"/>
			<rect x="52.6" y="2.5" class="st0" width="35" height="25"/>
			<path class="st0" d="M85.1,5v20h-30V5H85.1 M88.1,0h-36c-1.1,0-2,0.9-2,2v26c0,1.1,0.9,2,2,2h36c1.1,0,2-0.9,2-2V2
				C90.1,0.9,89.2,0,88.1,0z"/>
		</g>
	</g>
</g>
</svg>
