<svg xmlns="http://www.w3.org/2000/svg" viewBox="0 0 105 104.5"><defs><style>.cls-1{fill:none;stroke-linecap:round;}.cls-1,.cls-2{stroke:#fff;stroke-linejoin:round;stroke-width:5px;}.cls-2,.cls-3{fill:#fff;}</style></defs><title>2Fichier 54</title><g id="Calque_2" data-name="Calque 2"><g id="Calque_1-2" data-name="Calque 1"><g id="Profil"><line class="cls-1" x1="62.43" y1="69.63" x2="57.04" y2="69.63"/><path class="cls-2" d="M67.76,19.38H42.58v9.38a9.14,9.14,0,1,0,0,18.27v22.6l-1.15,0c-17.87-.83-26.79-15.08-26.79-33.34C14.64,17.61,28,2.5,46.63,2.5,56.64,2.5,67.76,11.44,67.76,19.38Z"/><path class="cls-1" d="M102.5,102V97a15,15,0,0,0-15-15h-13c-9.5-.83-12-6.53-12-12.37h.33a5,5,0,0,0,5-5V48.46L76.32,47,67.76,19.38H42.58v9.38"/><path class="cls-1" d="M42.58,47v22.6c0,5.84-2.53,11.54-12,12.37h-13a15,15,0,0,0-15,15v5"/><path class="cls-3" d="M54.25,32s2.22-2.78,5-2.78,5,1.24,5,2.78-2.23,2.79-5,2.79S54.25,32,54.25,32Z"/></g></g></g></svg>