<svg xmlns="http://www.w3.org/2000/svg" width="20" height="20" viewBox="0 0 20 20">
    <defs>
        <clipPath>
            <path d="M0 0H20V20H0z" transform="translate(0 1)" style="fill:#fefefe;stroke:#fefefe"/>
        </clipPath>
        <style>
            .prefix__cls-3,.prefix__cls-4{fill:none;stroke:#fff;stroke-linecap:round;stroke-linejoin:round;stroke-width:1.163px}.prefix__cls-4{fill:#fff}
        </style>
    </defs>
    <g id="prefix__Groupe_de_masques_28"  transform="translate(0 -1)">
        <g id="prefix__Calque_2" transform="translate(0 1.109)">
            <g>
                <g id="prefix__Document">
                    <path  d="M2.9 4.723v13.309a1.163 1.163 0 001.163 1.163h4.443" class="prefix__cls-3" />
                    <path  d="M17.092 15.042V1.745A1.163 1.163 0 0015.928.582H1.745" class="prefix__cls-3"/>
                    <path  d="M1.745.582a1.163 1.163 0 011.163 1.163v2.978H.582V1.745A1.163 1.163 0 011.745.582z" class="prefix__cls-4"/>
                    <path  d="M4.318 19.183a1.163 1.163 0 001.164-1.163v-2.978l13.937.016v2.978a1.163 1.163 0 01-1.164 1.164H4.318" class="prefix__cls-3"/>
                    <path d="M0 0L9.539 0" class="prefix__cls-4" transform="translate(5.226 6.68)"/>
                    <path d="M0 0L9.539 0" class="prefix__cls-4" transform="translate(5.226 4.353)"/>
                    <path d="M0 0L9.539 0" class="prefix__cls-4" transform="translate(5.226 9.007)"/>
                    <path d="M0 0L9.539 0" class="prefix__cls-4" transform="translate(5.226 11.333)"/>
                </g>
            </g>
        </g>
    </g>
</svg>
