<svg xmlns="http://www.w3.org/2000/svg" width="664" height="282" viewBox="0 0 664 282">
    <defs>
        <style>
            .cls-1{fill:#fff}.cls-2{clip-path:url(#clip-path)}.cls-3{fill:#f7e4b2}.cls-4{fill:#e68755}.cls-5{fill:#f7e5b7}.cls-6{fill:#ffbe55}.cls-7{fill:gray}.cls-8{fill:#b36942}.cls-9{fill:#ddcca0}.cls-10{fill:#ccc}.cls-11{fill:#b3b3b3}.cls-12{fill:#c28464}.cls-13{fill:#ffd0b5}.cls-14{fill:#e6bba3}.cls-15{fill:none}.cls-16{fill:#ffe0ce}.cls-17{fill:#ffac81}.cls-18{fill:#ffbd9b}.cls-19{fill:#cd8a67}.cls-20{fill:#59a7ff}.cls-21{fill:#666}
        </style>
        <clipPath id="clip-path">
            <path id="Rectangle_197" d="M0 0h664v282H0z" class="cls-1" data-name="Rectangle 197" transform="translate(22 2794)"/>
        </clipPath>
    </defs>
    <g id="Groupe_de_masques_16" class="cls-2" data-name="Groupe de masques 16" transform="translate(-22 -2794)">
        <g id="Juriste_construction" data-name="Juriste construction" transform="translate(65.791 2794)">
            <g id="Chantier">
                <path id="Tracé_605" d="M26.239 458.757C47.42 419.04 74.626 381.4 106.116 351.793a8.905 8.905 0 0 1 12.966.849c28.242 34.484 63.218 106.086 63.218 106.086z" class="cls-3" data-name="Tracé 605" transform="translate(-26.239 -176.781)"/>
                <path id="Tracé_606" d="M499.984 458.757c13.933-26.121 31.826-50.886 52.542-70.359a5.858 5.858 0 0 1 8.552.584c18.577 22.685 41.58 69.8 41.58 69.8z" class="cls-3" data-name="Tracé 606" transform="translate(-26.239 -176.781)"/>
                <path id="Rectangle_198" d="M0 0h17.84v143.888H0z" class="cls-4" data-name="Rectangle 198" transform="translate(184.23 138.089)"/>
                <path id="Rectangle_199" d="M0 0h17.84v143.888H0z" class="cls-4" data-name="Rectangle 199" transform="translate(462.347 138.089)"/>
                <path id="Rectangle_200" d="M0 0h357.581v46.578H0z" class="cls-4" data-name="Rectangle 200" transform="translate(152.074 173.51)"/>
                <path id="Tracé_607" d="M198.5 173.51l-46.43 46.43v-16.673l29.763-29.757z" class="cls-5" data-name="Tracé 607"/>
                <path id="Tracé_608" d="M246.043 173.51l-46.584 46.584h-16.667l46.578-46.584z" class="cls-5" data-name="Tracé 608"/>
                <path id="Tracé_609" d="M293.575 173.51l-46.584 46.584h-16.666l46.584-46.584z" class="cls-5" data-name="Tracé 609"/>
                <path id="Tracé_610" d="M341.108 173.51l-46.578 46.583h-16.667l46.578-46.584z" class="cls-5" data-name="Tracé 610"/>
                <path id="Tracé_611" d="M388.646 173.51l-46.584 46.584H325.4l46.584-46.584z" class="cls-5" data-name="Tracé 611"/>
                <path id="Tracé_612" d="M436.185 173.51L389.6 220.093h-16.666l46.578-46.584z" class="cls-5" data-name="Tracé 612"/>
                <path id="Tracé_613" d="M483.717 173.51l-46.584 46.584h-16.667l46.584-46.584z" class="cls-5" data-name="Tracé 613"/>
                <path id="Tracé_614" d="M509.655 178.437v16.673l-24.983 24.983H468z" class="cls-5" data-name="Tracé 614"/>
                <path id="Tracé_615" d="M203.614 281.977h306.041v-25.756H152.074v25.755h51.54" class="cls-4" data-name="Tracé 615"/>
                <path id="Tracé_616" d="M198.5 256.221L184.23 270.5l-11.487 11.481h-16.667l25.761-25.755z" class="cls-5" data-name="Tracé 616"/>
                <path id="Tracé_617" d="M246.043 256.221l-25.761 25.755h-16.668l25.755-25.755z" class="cls-5" data-name="Tracé 617"/>
                <path id="Tracé_618" d="M293.575 256.221l-25.761 25.755h-16.667l25.761-25.755z" class="cls-5" data-name="Tracé 618"/>
                <path id="Tracé_619" d="M341.108 256.221l-25.755 25.755h-16.668l25.755-25.755z" class="cls-5" data-name="Tracé 619"/>
                <path id="Tracé_620" d="M388.646 256.221l-25.761 25.755h-16.667l25.761-25.755z" class="cls-5" data-name="Tracé 620"/>
                <path id="Tracé_621" d="M436.185 256.221l-25.761 25.755h-16.668l25.755-25.755z" class="cls-5" data-name="Tracé 621"/>
                <path id="Tracé_622" d="M483.717 256.221l-21.37 21.37-4.391 4.385h-16.668l21.058-21.052 4.7-4.7z" class="cls-5" data-name="Tracé 622"/>
                <path id="Tracé_623" d="M509.655 261.148v16.667l-4.161 4.161h-16.667z" class="cls-5" data-name="Tracé 623"/>
                <circle id="Ellipse_91" cx="19.567" cy="19.567" r="19.567" class="cls-6" data-name="Ellipse 91" transform="translate(173.586 118.522)"/>
                <circle id="Ellipse_92" cx="9.783" cy="9.783" r="9.783" class="cls-5" data-name="Ellipse 92" transform="translate(183.37 128.305)"/>
                <circle id="Ellipse_93" cx="19.567" cy="19.567" r="19.567" class="cls-6" data-name="Ellipse 93" transform="translate(451.697 118.522)"/>
                <circle id="Ellipse_94" cx="9.783" cy="9.783" r="9.783" class="cls-5" data-name="Ellipse 94" transform="translate(461.48 128.305)"/>
                <path id="Rectangle_201" d="M0 0h17.84v4.143H0z" class="cls-7" data-name="Rectangle 201" transform="translate(184.23 220.087)"/>
                <path id="Rectangle_202" d="M0 0h17.84v4.143H0z" class="cls-8" data-name="Rectangle 202" transform="translate(461.963 220.087)"/>
                <path id="Tracé_624" d="M112.434 402.343a38.844 38.844 0 0 1-13.261-3.165c6.212 2.24 15.294 1.768 15.294 1.768z" class="cls-9" data-name="Tracé 624" transform="translate(-26.239 -176.781)"/>
                <path id="Tracé_625" d="M138.254 387.662l-4.054 13.479a72.618 72.618 0 0 1-21.771 1.179 10.7 10.7 0 0 1 .047-4.3l3.454-16.107a2.3 2.3 0 0 1 2.817-1.739l4.821 1.238 2.982.766 2.269.589 2.982.766 4.821 1.238a2.287 2.287 0 0 1 1.627 2.894z" class="cls-10" data-name="Tracé 625" transform="translate(-26.239 -176.781)"/>
                <path id="Tracé_626" d="M105.567 206.762l-7.762 13.125-.471-15.235z" class="cls-11" data-name="Tracé 626"/>
                <path id="Tracé_627" d="M135.778 313.732a1.179 1.179 0 0 1 1.179 1.179V388.3H134.6v-73.4a1.179 1.179 0 0 1 1.178-1.168z" class="cls-12" data-name="Tracé 627" transform="rotate(14.41 821.833 158.817)"/>
            </g>
            <g id="Scribe">
                <path id="Tracé_628" d="M293.829 227.2s-24.712-4.945-25.867 21.388l-4.515-17.322 2.988-7.7 26.74-.507z" data-name="Tracé 628" transform="translate(-26.239 -176.781)"/>
                <path id="Tracé_629" d="M330.452 345.6l-30.588 46.5-28.166-46.5c4.52-1.42 7.562-4.833 9.618-9.306a41.8 41.8 0 0 0 2.947-10.072c1.426-8.057 1.438-17.044 1.6-23.9v-.967l11.174 2.8 2.823.713.377-.088 14.6-3.424c0 .253-.029.513-.041.772a96.4 96.4 0 0 0 .784 17.8c1.7 12.009 6.02 23.549 14.872 25.672z" class="cls-13" data-name="Tracé 629" transform="translate(-26.239 -176.781)"/>
                <path id="Tracé_630" d="M315.588 319.92c-4.638 6.831-19.508 18.04-34.272 16.367a41.8 41.8 0 0 0 2.947-10.072c1.426-8.057 1.438-17.044 1.6-23.9v-.33l11.174 2.163 3.2.625.454.088 14.109-2.741a96.406 96.406 0 0 0 .784 17.8z" class="cls-14" data-name="Tracé 630" transform="translate(-26.239 -176.781)"/>
                <path id="Tracé_631" d="M340.348 216.186s-15.282 12.848-11.41 35.557a2.581 2.581 0 0 0 4.644 1.1c4.874-6.582 12.665-20.491 6.766-36.657z" data-name="Tracé 631" transform="translate(-26.239 -176.781)"/>
                <path id="Tracé_632" d="M267.119 240.415c-1.179-2-3.866-5.122-6.241-4.509s-4.2 22.844 5.086 30.842 3.908-4.632 3.86-9.943 1.367-9.648-2.705-16.39z" class="cls-14" data-name="Tracé 632" transform="translate(-26.239 -176.781)"/>
                <path id="Tracé_633" d="M332.6 240.415c1.179-2 3.866-5.122 6.241-4.509s4.208 22.844-5.08 30.842-3.913-4.632-3.86-9.943-1.37-9.648 2.699-16.39z" class="cls-14" data-name="Tracé 633" transform="translate(-26.239 -176.781)"/>
                <path id="Tracé_634" d="M330.806 257.5c0 12.076-.972 39.941-.972 39.941-5.988 16.856-23.368 22.95-29.969 22.95s-23.209-5.894-29.209-22.473c0 0-1.733-28.154-1.733-40.419-1.821-38.12-2.357-58.3 30.942-58.3s34.4 20.401 30.941 58.301z" class="cls-13" data-name="Tracé 634" transform="translate(-26.239 -176.781)"/>
                <path id="Ligne_155" d="M.006 0H0" class="cls-15" data-name="Ligne 155" transform="translate(274.215 91.21)"/>
                <path id="Tracé_635" d="M302.5 282.03c-4.685 9.017-10.7-.9-10.7-.9 6.365-1.5 7.927-27.182 8.045-29.321v-.141s2.655 20.39 2.655 30.362z" class="cls-14" data-name="Tracé 635" transform="translate(-26.239 -176.781)"/>
                <path id="Tracé_636" d="M299.852 251.807c-.118 2.139-1.68 27.818-8.045 29.321 5.935-7.128 7.874-27.435 8.045-29.321z" class="cls-16" data-name="Tracé 636" transform="translate(-26.239 -176.781)"/>
                <path id="Tracé_637" d="M299.852 251.807v-.141" class="cls-10" data-name="Tracé 637" transform="translate(-26.239 -176.781)"/>
                <path id="Tracé_638" d="M283.061 289.415s21.565 8.958 32.757-.76c0 0 .253 12.689-16.544 12.689-12.724-.001-16.213-11.929-16.213-11.929z" class="cls-1" data-name="Tracé 638" transform="translate(-26.239 -176.781)"/>
                <ellipse id="Ellipse_95" cx="2.623" cy="4.591" data-name="Ellipse 95" rx="2.623" ry="4.591" transform="translate(261.437 71.667)"/>
                <ellipse id="Ellipse_96" cx="2.623" cy=".654" data-name="Ellipse 96" rx="2.623" ry=".654" transform="translate(281.594 75.604)"/>
                <path id="Tracé_639" d="M274.8 244.245a23.291 23.291 0 0 1 2.357-7.108 13.225 13.225 0 0 1 2.4-3.218 8.622 8.622 0 0 1 3.86-2.2 9.3 9.3 0 0 1 4.632.183 14.775 14.775 0 0 1 3.966 1.827 20.08 20.08 0 0 1 3.3 2.682 17.634 17.634 0 0 1 2.717 3.477l-5.894 2.882a13.331 13.331 0 0 0-3.253-4.957 7.353 7.353 0 0 0-4.892-2.422 5.788 5.788 0 0 0-2.729.76 10.685 10.685 0 0 0-2.581 2.075 22.244 22.244 0 0 0-3.884 6.017z" data-name="Tracé 639" transform="translate(-26.239 -176.781)"/>
                <path id="Tracé_640" d="M324.924 244.245q-5.063.9-10.09 1.9c-1.674.336-3.348.672-4.992 1.043-.825.183-1.65.365-2.44.589a17.812 17.812 0 0 0-2.163.654l-1.179-6.454a24.794 24.794 0 0 1 2.882.077c.9.059 1.768.147 2.629.236 1.733.171 3.448.383 5.157.589q5.104.63 10.196 1.366z" data-name="Tracé 640" transform="translate(-26.239 -176.781)"/>
                <path id="Tracé_641" d="M312.223 214.889s-1.179 1.874-5.074 4.126c-10.108 5.894-30.706 21.388-53.45 21.388 0 0-6.147-18.447 14.823-25.525z" data-name="Tracé 641" transform="translate(-26.239 -176.781)"/>
                <path id="Tracé_642" d="M307.149 219.026s23.657-3.825 24.818 22.508l5.558-18.441-2.988-7.7-26.74-.507z" data-name="Tracé 642" transform="translate(-26.239 -176.781)"/>
                <path id="Tracé_643" d="M334.536 211.453v2.2h-69.321v-2.2a34.675 34.675 0 0 1 69.351 0z" class="cls-17" data-name="Tracé 643" transform="translate(-26.239 -176.781)"/>
                <path id="Tracé_644" d="M283.721 196.613c-7.868-2.122-14.734 5.44-18.27 10.438a34.684 34.684 0 0 1 27.7-29.616v13.031s.183 8.74-9.43 6.147z" class="cls-18" data-name="Tracé 644" transform="translate(-26.239 -176.781)"/>
                <path id="Tracé_645" d="M316.007 196.613c7.868-2.122 14.734 5.44 18.27 10.438a34.684 34.684 0 0 0-27.7-29.616v13.031s-.183 8.74 9.43 6.147z" class="cls-18" data-name="Tracé 645" transform="translate(-26.239 -176.781)"/>
                <rect id="Rectangle_203" width="73.942" height="5.063" class="cls-19" data-name="Rectangle 203" rx="1.774" transform="translate(236.654 34.342)"/>
                <path id="Tracé_646" d="M280.026 359.337c16.85 7.4 41.044.519 41.044.519l-21.217 32.238z" class="cls-20" data-name="Tracé 646" transform="translate(-26.239 -176.781)"/>
                <path id="Tracé_647" d="M404.836 458.728h-39.617c14.911-.23 31.024-5.776 38.15-8.534z" class="cls-13" data-name="Tracé 647" transform="translate(-26.239 -176.781)"/>
                <path id="Tracé_648" d="M407.117 448.667s-22.019 9.754-41.9 10.06h-153.11l-15.948-8.534-3.536-1.526 14.068-73.889s46.967-24.105 65.007-29.185l28.166 46.5 30.588-46.5c27.918 7.956 42.1 19.938 62.585 29.18z" class="cls-20" data-name="Tracé 648" transform="translate(-26.239 -176.781)"/>
                <path id="Tracé_649" d="M376.14 366.109c-3.318 10.956-9.383 35.014-11.817 70.771q-.389 5.693-.642 11.787a473.734 473.734 0 0 0-.312 10.06H236.336q-.106-5.157-.306-10.06-.253-6.094-.648-11.787c-2.416-35.533-8.416-59.526-11.752-70.559 6.053-2.947 13.119-6.33 20.121-9.524a502.798 502.798 0 0 1 10.838-4.8 155.161 155.161 0 0 1 17.092-6.406l28.166 46.5 30.588-46.5a155.085 155.085 0 0 1 15.164 5.163 164.636 164.636 0 0 1 10.833 4.8c7.068 3.429 13.36 7.046 19.708 10.555z" class="cls-17" data-name="Tracé 649" transform="translate(-26.239 -176.781)"/>
                <path id="Tracé_650" d="M376.14 366.109c-3.318 10.956-9.383 35.014-11.817 70.771q-.389 5.693-.642 11.787a473.734 473.734 0 0 0-.312 10.06h-2.853v-.949c.059-2.664.136-7.108.218-9.235.165-3.925.377-7.921.648-11.864 2.293-33.665 7.774-57.068 11.263-69.139l-1.285-.719c-5.145-2.864-10.461-5.823-16.2-8.611a161.895 161.895 0 0 0-10.644-4.715 150.12 150.12 0 0 0-12.8-4.456L302.345 393.7l-2.564 3.9-2.422-3.99-26.981-44.544c-3.7 1.179-8.593 3.082-14.587 5.634l-.554.236a514.847 514.847 0 0 0-10.22 4.532 808.787 808.787 0 0 0-17.811 8.4c3.465 12.076 8.888 35.362 11.163 68.8.265 3.872.483 7.868.654 11.864.094 2.31 0 7.662.083 10.184h-2.77q-.106-5.157-.306-10.061-.253-6.094-.648-11.787c-2.416-35.533-8.416-59.526-11.752-70.559 6.053-2.947 13.119-6.33 20.121-9.524a502.798 502.798 0 0 1 10.838-4.8 155.161 155.161 0 0 1 17.092-6.406l28.166 46.5 30.588-46.5a155.064 155.064 0 0 1 15.164 5.163 164.636 164.636 0 0 1 10.833 4.8c7.068 3.441 13.36 7.058 19.708 10.567z" class="cls-19" data-name="Tracé 650" transform="translate(-26.239 -176.781)"/>
                <path id="Tracé_651" d="M356.449 355.559c-7.32 18.188-18.459 48.982-24.653 81.333a296.514 296.514 0 0 0-2.016 11.787q-.748 5.033-1.3 10.06h-11.87q.513-5.033 1.232-10.06c.554-3.943 1.179-7.88 1.915-11.787 6.294-34.525 18.135-67.111 25.856-86.118 3.882 1.526 7.418 3.135 10.836 4.785z" class="cls-19" data-name="Tracé 651" transform="translate(-26.239 -176.781)"/>
                <path id="Tracé_652" d="M283.114 458.728h-11.87q-.542-5.021-1.3-10.06a294.708 294.708 0 0 0-2.016-11.787c-6.053-31.62-16.838-61.754-24.164-80.083a502.798 502.798 0 0 1 10.838-4.8c7.715 19.16 19.19 51.092 25.343 84.869a282.168 282.168 0 0 1 1.915 11.787q.74 5.035 1.254 10.074z" class="cls-19" data-name="Tracé 652" transform="translate(-26.239 -176.781)"/>
                <path id="Tracé_653" d="M236.053 448.667h127.628q.248-6.094.642-11.787H235.4" class="cls-19" data-name="Tracé 653" transform="translate(-26.239 -176.781)"/>
                <path id="Ligne_156" d="M0 1.397V0" class="cls-21" data-name="Ligne 156" transform="translate(212.82 280.55)"/>
                <path id="Tracé_654" d="M194.691 458.728h39.617c-14.911-.23-31.024-5.776-38.15-8.534z" class="cls-13" data-name="Tracé 654" transform="translate(-26.239 -176.781)"/>
            </g>
        </g>
    </g>
</svg>
