<svg xmlns="http://www.w3.org/2000/svg" width="663.591" height="281.512" viewBox="0 0 663.591 281.512">
    <defs>
        <style>
            .cls-1{fill:#fff}.cls-2{clip-path:url(#clip-path)}.cls-3{fill:#e6e6e6}.cls-4{fill:#ccc}.cls-5{fill:#999}.cls-6{fill:#666}.cls-7{fill:gray}.cls-8{fill:#b3b3b3}.cls-9{fill:none}
        </style>
        <clipPath id="clip-path">
            <path id="Rectangle_1" d="M0 0h663.591v281.512H0z" class="cls-1" data-name="Rectangle 1" transform="translate(-.128 -.194)"/>
        </clipPath>
    </defs>
    <g id="Groupe_de_masques_2" class="cls-2" data-name="Groupe de masques 2" transform="translate(.128 .194)">
        <g id="Juriste_construction" data-name="Juriste construction" transform="translate(43.957 -.194)">
            <g id="Chantier" transform="translate(0 118.316)">
                <path id="Tracé_85" d="M27.913 480.87c21.145-39.649 48.3-77.226 79.739-106.779a8.89 8.89 0 0 1 12.944.847c28.194 34.424 63.106 105.9 63.106 105.9z" class="cls-3" data-name="Tracé 85" transform="translate(-27.913 -317.697)"/>
                <path id="Tracé_86" d="M531.9 483.323c13.909-26.076 31.771-50.8 52.451-70.237a5.848 5.848 0 0 1 8.537.582c18.545 22.645 41.508 69.678 41.508 69.678z" class="cls-3" data-name="Tracé 86" transform="translate(-58.972 -320.151)"/>
                <path id="Rectangle_36" d="M0 0h17.809v143.639H0z" class="cls-4" data-name="Rectangle 36" transform="translate(183.911 19.533)"/>
                <path id="Rectangle_37" d="M0 0h17.809v143.639H0z" class="cls-4" data-name="Rectangle 37" transform="translate(461.546 19.533)"/>
                <path id="Rectangle_38" d="M0 0h356.962v46.497H0z" class="cls-5" data-name="Rectangle 38" transform="translate(151.811 54.893)"/>
                <path id="Tracé_87" d="M208.131 184.585l-46.35 46.35V214.29l29.712-29.706z" class="cls-6" data-name="Tracé 87" transform="translate(-9.97 -129.692)"/>
                <path id="Tracé_88" d="M257.6 184.585l-46.5 46.5h-16.64l46.5-46.5z" class="cls-6" data-name="Tracé 88" transform="translate(-11.984 -129.692)"/>
                <path id="Tracé_89" d="M308.168 184.585l-46.5 46.5h-16.642l46.5-46.5z" class="cls-6" data-name="Tracé 89" transform="translate(-15.1 -129.692)"/>
                <path id="Tracé_90" d="M358.734 184.585l-46.5 46.5H295.6l46.5-46.5z" class="cls-6" data-name="Tracé 90" transform="translate(-18.217 -129.692)"/>
                <path id="Tracé_91" d="M409.307 184.585l-46.5 46.5h-16.642l46.5-46.5z" class="cls-6" data-name="Tracé 91" transform="translate(-21.333 -129.692)"/>
                <path id="Tracé_92" d="M459.879 184.585l-46.5 46.5h-16.641l46.5-46.5z" class="cls-6" data-name="Tracé 92" transform="translate(-24.45 -129.692)"/>
                <path id="Tracé_93" d="M510.446 184.585l-46.5 46.5H447.3l46.5-46.5z" class="cls-6" data-name="Tracé 93" transform="translate(-27.566 -129.692)"/>
                <path id="Tracé_94" d="M539.456 189.826v16.644l-24.94 24.94h-16.639z" class="cls-6" data-name="Tracé 94" transform="translate(-30.683 -130.015)"/>
                <path id="Tracé_95" d="M213.232 298.287h305.511v-25.711H161.781v25.711h51.451" class="cls-5" data-name="Tracé 95" transform="translate(-9.97 -135.115)"/>
                <path id="Tracé_96" d="M208.394 272.576l-14.25 14.25-11.467 11.461h-16.639l25.717-25.711z" class="cls-6" data-name="Tracé 96" transform="translate(-10.232 -135.115)"/>
                <path id="Tracé_97" d="M258.966 272.576l-25.716 25.711h-16.639l25.711-25.711z" class="cls-6" data-name="Tracé 97" transform="translate(-13.349 -135.115)"/>
                <path id="Tracé_98" d="M309.533 272.576l-25.717 25.711h-16.638l25.717-25.711z" class="cls-6" data-name="Tracé 98" transform="translate(-16.465 -135.115)"/>
                <path id="Tracé_99" d="M360.1 272.576l-25.711 25.711H317.75l25.711-25.711z" class="cls-6" data-name="Tracé 99" transform="translate(-19.582 -135.115)"/>
                <path id="Tracé_100" d="M410.672 272.576l-25.717 25.711h-16.638l25.717-25.711z" class="cls-6" data-name="Tracé 100" transform="translate(-22.698 -135.115)"/>
                <path id="Tracé_101" d="M461.245 272.576l-25.717 25.711h-16.639l25.711-25.711z" class="cls-6" data-name="Tracé 101" transform="translate(-25.815 -135.115)"/>
                <path id="Tracé_102" d="M511.811 272.576l-21.333 21.333-4.383 4.377h-16.639l21.022-21.016 4.7-4.7z" class="cls-6" data-name="Tracé 102" transform="translate(-28.931 -135.115)"/>
                <path id="Tracé_103" d="M540.821 277.818v16.638l-4.154 4.154h-16.638z" class="cls-6" data-name="Tracé 103" transform="translate(-32.048 -135.438)"/>
                <circle id="Ellipse_7" cx="19.533" cy="19.533" r="19.533" class="cls-3" data-name="Ellipse 7" transform="translate(173.286)"/>
                <circle id="Ellipse_8" cx="19.533" cy="19.533" r="19.533" class="cls-3" data-name="Ellipse 8" transform="translate(450.915)"/>
                <path id="Rectangle_39" d="M0 0h17.809v4.136H0z" class="cls-7" data-name="Rectangle 39" transform="translate(183.911 101.39)"/>
                <path id="Rectangle_40" d="M0 0h17.809v4.136H0z" class="cls-7" data-name="Rectangle 40" transform="translate(461.164 101.39)"/>
                <path id="Tracé_104" d="M118.741 427.817a38.776 38.776 0 0 1-13.238-3.159c6.2 2.236 15.268 1.765 15.268 1.765z" class="cls-8" data-name="Tracé 104" transform="translate(-32.695 -320.962)"/>
                <path id="Tracé_105" d="M145.373 411.911l-4.042 13.455a72.491 72.491 0 0 1-21.734 1.177 10.678 10.678 0 0 1 .047-4.295l3.448-16.08a2.295 2.295 0 0 1 2.812-1.736l4.813 1.236 2.977.765 2.265.588 2.977.765 4.813 1.236a2.283 2.283 0 0 1 1.624 2.889z" class="cls-4" data-name="Tracé 105" transform="translate(-33.552 -319.711)"/>
                <path id="Tracé_106" d="M111.766 219.821l-7.749 13.1-.471-15.209z" class="cls-8" data-name="Tracé 106" transform="translate(-6.381 -131.734)"/>
                <path id="Tracé_107" d="M1.177.006a1.177 1.177 0 0 1 1.176 1.177v73.261H0V1.177A1.177 1.177 0 0 1 1.177 0z" class="cls-8" data-name="Tracé 107" transform="rotate(14.41 -17.494 474.23)"/>
            </g>
            <g id="Scribe" transform="translate(166.096)">
                <path id="Tracé_108" d="M310.592 241.432s-24.669-4.936-25.823 21.351l-4.507-17.292 2.983-7.684 26.693-.506z" data-name="Tracé 108" transform="translate(-209.561 -191.099)"/>
                <path id="Tracé_109" d="M347.693 364.757l-30.535 46.415-28.117-46.421c4.513-1.418 7.548-4.824 9.6-9.29a41.729 41.729 0 0 0 2.942-10.055c1.424-8.043 1.436-17.015 1.6-23.863v-.965l11.155 2.795 2.818.712.377-.088 14.579-3.418c0 .253-.029.512-.041.771a96.236 96.236 0 0 0 .782 17.774c1.69 11.995 6.003 23.515 14.84 25.633z" class="cls-4" data-name="Tracé 109" transform="translate(-210.102 -196.231)"/>
                <path id="Tracé_110" d="M333.485 339.164c-4.63 6.819-19.474 18.009-34.212 16.338a41.728 41.728 0 0 0 2.942-10.055c1.424-8.043 1.436-17.015 1.6-23.863v-.329l11.155 2.159 3.195.624.453.088 14.082-2.736a96.238 96.238 0 0 0 .783 17.774z" class="cls-8" data-name="Tracé 110" transform="translate(-210.733 -196.273)"/>
                <path id="Tracé_111" d="M361.283 229.985s-15.256 12.826-11.39 35.495a2.577 2.577 0 0 0 4.636 1.094c4.865-6.566 12.643-20.451 6.754-36.589z" data-name="Tracé 111" transform="translate(-213.814 -190.648)"/>
                <path id="Tracé_112" d="M283.634 255.459c-1.177-1.995-3.86-5.113-6.231-4.5s-4.195 22.8 5.077 30.788 3.9-4.624 3.854-9.925 1.366-9.632-2.7-16.363z" class="cls-8" data-name="Tracé 112" transform="translate(-209.267 -191.936)"/>
                <path id="Tracé_113" d="M353.552 255.459c1.177-1.995 3.86-5.113 6.231-4.5s4.2 22.8-5.072 30.788-3.907-4.624-3.854-9.925-1.371-9.632 2.695-16.363z" class="cls-8" data-name="Tracé 113" transform="translate(-213.814 -191.936)"/>
                <path id="Tracé_114" d="M347.819 270.114c0 12.055-.971 39.872-.971 39.872-5.978 16.827-23.328 22.91-29.917 22.91s-23.169-5.883-29.158-22.434c0 0-1.73-28.105-1.73-40.349-1.818-38.054-2.353-58.2 30.888-58.2s34.342 20.365 30.888 58.201z" class="cls-4" data-name="Tracé 114" transform="translate(-209.876 -189.535)"/>
                <path id="Ligne_28" d="M.006 0H0" class="cls-9" data-name="Ligne 28" transform="translate(107.644 91.052)"/>
                <path id="Tracé_115" d="M321.112 298.041c-4.677 9-10.678-.9-10.678-.9 6.354-1.5 7.913-27.135 8.031-29.27v-.141s2.647 20.356 2.647 30.311z" class="cls-8" data-name="Tracé 115" transform="translate(-211.42 -192.974)"/>
                <path id="Tracé_116" d="M318.464 267.88c-.118 2.136-1.677 27.77-8.031 29.27 5.925-7.113 7.861-27.387 8.031-29.27z" class="cls-3" data-name="Tracé 116" transform="translate(-211.42 -192.984)"/>
                <path id="Tracé_117" d="M318.992 267.871v-.141" class="cls-4" data-name="Tracé 117" transform="translate(-211.948 -192.974)"/>
                <path id="Tracé_118" d="M301.129 307.838s21.528 8.943 32.7-.759c0 0 .253 12.667-16.515 12.667-12.702 0-16.185-11.908-16.185-11.908z" class="cls-1" data-name="Tracé 118" transform="translate(-210.847 -195.399)"/>
                <ellipse id="Ellipse_9" cx="2.618" cy="4.583" data-name="Ellipse 9" rx="2.618" ry="4.583" transform="translate(94.889 71.543)"/>
                <ellipse id="Ellipse_10" cx="2.618" cy=".653" data-name="Ellipse 10" rx="2.618" ry=".653" transform="translate(115.01 75.473)"/>
                <path id="Tracé_119" d="M292.339 259a23.25 23.25 0 0 1 2.353-7.1 13.2 13.2 0 0 1 2.395-3.212 8.607 8.607 0 0 1 3.854-2.195 9.284 9.284 0 0 1 4.624.182 14.75 14.75 0 0 1 3.96 1.824 20.047 20.047 0 0 1 3.295 2.677 17.605 17.605 0 0 1 2.712 3.471l-5.883 2.877a13.308 13.308 0 0 0-3.248-4.948 7.34 7.34 0 0 0-4.883-2.418 5.778 5.778 0 0 0-2.724.759 10.665 10.665 0 0 0-2.577 2.071 22.2 22.2 0 0 0-3.878 6.012z" data-name="Tracé 119" transform="translate(-210.305 -191.653)"/>
                <path id="Tracé_120" d="M344.3 259.686q-5.054.9-10.073 1.895c-1.671.335-3.342.671-4.983 1.041-.824.182-1.647.365-2.436.588a17.781 17.781 0 0 0-2.159.653l-1.177-6.442a24.752 24.752 0 0 1 2.877.076c.894.059 1.765.147 2.624.235 1.73.171 3.442.382 5.148.588q5.092.631 10.179 1.366z" data-name="Tracé 120" transform="translate(-212.224 -192.338)"/>
                <path id="Tracé_121" d="M328.26 228.6s-1.177 1.871-5.066 4.118c-10.09 5.883-30.653 21.351-53.357 21.351 0 0-6.136-18.415 14.8-25.481z" data-name="Tracé 121" transform="translate(-208.867 -190.562)"/>
                <path id="Tracé_122" d="M326.754 232.736s23.616-3.818 24.775 22.469l5.548-18.409-2.983-7.684-26.693-.506z" data-name="Tracé 122" transform="translate(-212.426 -190.563)"/>
                <path id="Tracé_123" d="M351.345 222.677v2.2h-69.2v-2.2a34.615 34.615 0 0 1 69.231 0z" class="cls-8" data-name="Tracé 123" transform="translate(-209.677 -188.065)"/>
                <path id="Tracé_124" d="M300.633 207.905c-7.854-2.118-14.709 5.43-18.239 10.42a34.624 34.624 0 0 1 27.652-29.564v13.008s.183 8.725-9.413 6.136z" class="cls-4" data-name="Tracé 124" transform="translate(-209.693 -188.108)"/>
                <path id="Tracé_125" d="M335.559 207.905c7.854-2.118 14.709 5.43 18.239 10.42a34.624 34.624 0 0 0-27.652-29.564v13.008s-.183 8.725 9.413 6.136z" class="cls-4" data-name="Tracé 125" transform="translate(-212.389 -188.108)"/>
                <rect id="Rectangle_41" width="73.814" height="5.054" class="cls-7" data-name="Rectangle 41" rx="1.887" transform="translate(70.149 34.283)"/>
                <path id="Tracé_126" d="M297.9 382.273c16.821 7.384 40.973.518 40.973.518l-21.181 32.183z" class="cls-8" data-name="Tracé 126" transform="translate(-210.648 -200.033)"/>
                <path id="Tracé_127" d="M428.079 487.449h-39.548c14.885-.229 30.971-5.766 38.084-8.519z" class="cls-4" data-name="Tracé 127" transform="translate(-216.233 -205.99)"/>
                <path id="Tracé_128" d="M419.041 470.548s-21.981 9.737-41.826 10.043H224.369l-15.921-8.519-3.53-1.524 14.044-73.761s46.885-24.063 64.895-29.135l28.117 46.421 30.535-46.415c27.87 7.943 42.026 19.9 62.477 29.129z" class="cls-8" data-name="Tracé 128" transform="translate(-204.918 -199.132)"/>
                <path id="Tracé_129" d="M390.15 388.132c-3.312 10.937-9.366 34.954-11.8 70.649q-.388 5.683-.641 11.767a485.698 485.698 0 0 0-.312 10.043H250.588q-.106-5.148-.306-10.043-.253-6.084-.647-11.767c-2.412-35.471-8.4-59.423-11.732-70.437 6.042-2.942 13.1-6.319 20.086-9.508 3.677-1.677 7.331-3.3 10.82-4.789a154.9 154.9 0 0 1 17.062-6.4l28.117 46.421 30.535-46.415a154.825 154.825 0 0 1 15.138 5.154 166.45 166.45 0 0 1 10.814 4.789c7.055 3.423 13.339 7.03 19.675 10.536z" class="cls-5" data-name="Tracé 129" transform="translate(-206.951 -199.132)"/>
                <path id="Tracé_130" d="M390.15 388.131c-3.312 10.937-9.366 34.954-11.8 70.649q-.388 5.683-.641 11.767a485.698 485.698 0 0 0-.312 10.043h-2.848v-.947c.059-2.659.135-7.1.218-9.219a451.5 451.5 0 0 1 .647-11.843c2.289-33.606 7.76-56.97 11.243-69.019l-1.283-.718c-5.136-2.859-10.443-5.813-16.168-8.6a161.877 161.877 0 0 0-10.626-4.707 149.385 149.385 0 0 0-12.779-4.448l-29.323 44.579-2.559 3.889-2.418-3.983-26.93-44.464c-3.695 1.177-8.578 3.077-14.562 5.625l-.553.235c-3.1 1.33-6.531 2.853-10.2 4.524a833.457 833.457 0 0 0-17.78 8.39c3.459 12.055 8.872 35.3 11.143 68.678.265 3.865.482 7.854.653 11.843.094 2.306 0 7.649.082 10.167h-2.765q-.106-5.148-.306-10.043-.253-6.084-.647-11.767c-2.412-35.471-8.4-59.423-11.732-70.437 6.042-2.942 13.1-6.319 20.086-9.508 3.677-1.677 7.331-3.3 10.82-4.789a154.9 154.9 0 0 1 17.062-6.4l28.117 46.421 30.535-46.415a154.8 154.8 0 0 1 15.138 5.154 166.45 166.45 0 0 1 10.814 4.789c7.054 3.441 13.338 7.048 19.674 10.554z" class="cls-6" data-name="Tracé 130" transform="translate(-206.951 -199.131)"/>
                <path id="Tracé_131" d="M376.59 377.941c-7.307 18.156-18.427 48.9-24.611 81.192a295.814 295.814 0 0 0-2.012 11.767q-.747 5.025-1.294 10.043h-11.85q.512-5.024 1.23-10.043a255.747 255.747 0 0 1 1.912-11.767c6.284-34.465 18.1-67 25.811-85.969 3.871 1.523 7.401 3.129 10.814 4.777z" class="cls-6" data-name="Tracé 131" transform="translate(-213.047 -199.472)"/>
                <path id="Tracé_132" d="M298.606 481.011h-11.85q-.541-5.013-1.294-10.043c-.588-3.93-1.265-7.86-2.012-11.767-6.042-31.565-16.809-61.647-24.122-79.945 3.677-1.677 7.331-3.3 10.82-4.789 7.7 19.127 19.157 51 25.3 84.722.718 3.9 1.359 7.831 1.912 11.767q.734 5.025 1.246 10.055z" class="cls-6" data-name="Tracé 132" transform="translate(-208.271 -199.552)"/>
                <path id="Tracé_133" d="M251.078 476.533h127.406q.247-6.084.641-11.767H250.431" class="cls-6" data-name="Tracé 133" transform="translate(-207.723 -205.117)"/>
                <path id="Ligne_29" d="M0 1.394V0" class="cls-6" data-name="Ligne 29" transform="translate(46.356 280.065)"/>
                <path id="Tracé_134" d="M207.119 487.449h39.549c-14.885-.229-30.971-5.766-38.084-8.519z" class="cls-4" data-name="Tracé 134" transform="translate(-205.054 -205.99)"/>
            </g>
        </g>
    </g>
</svg>
