<svg id="Calque_1" data-name="Calque 1" xmlns="http://www.w3.org/2000/svg" viewBox="0 0 1000 1000"><defs><style>.cls-1{fill:#91663c;}.cls-2{fill:#c79160;}.cls-3,.cls-9{fill:none;}.cls-4{fill:#ffd0b5;}.cls-5{fill:#e6bba3;}.cls-6{fill:#cda691;}.cls-7{fill:#fff;}.cls-8{fill:#3f99ff;}.cls-9{stroke:#f7de9e;stroke-miterlimit:10;stroke-width:3px;}</style></defs><title>Florence</title><path class="cls-1" d="M426.82,170.34S506.49,7.26,696.61,78.44c129.21,48.37,66,184.19,110,211.68,18.23,11.39,33.9,9.11,46.44,4.12,5.4-2.14,7.65-7.6,6.73-13.11,4.59,22.95-29.07,36.34-43.86,41.89-26.32,9.87-112.14,31.06-171-42L438.07,649s-66.85,70.15-97.89,29.67c-7.16-9.34-10.69-25.84-3.42-43.66-3.8,15.28.55,25.33,9.5,31.89,14.91,10.94,36.16,3.26,41.89-33.73,12.17-78.69-110.27-136.95-100.62-305.69S426.82,170.34,426.82,170.34Z"/><path class="cls-2" d="M795.56,304.5a74.32,74.32,0,0,1-26-5.88,68.66,68.66,0,0,1-22-15.71A113.55,113.55,0,0,1,731.62,261c-4.5-7.79-8.38-15.85-12.1-23.9-7.43-16.06-14.28-32.24-23.42-46.44a97.06,97.06,0,0,0-15.61-19.05,68,68,0,0,0-19.75-12.84,75,75,0,0,0-11.2-3.61c-1-.21-1.92-.44-2.89-.64l-2.94-.51c-2-.32-4.07-.6-6.11-.82a119.75,119.75,0,0,0-24.37-.29,92.89,92.89,0,0,0-44,15.37,86.51,86.51,0,0,0-29.35,34.32A85.43,85.43,0,0,0,531.18,245l-36.28,7.67c.58-20.42,8.86-46.58,19-64A114,114,0,0,1,556,146.77a111.36,111.36,0,0,1,27.39-11.06,120.68,120.68,0,0,1,28.77-3.79,140.15,140.15,0,0,1,28.3,2.6c2.32.44,4.56.94,6.89,1.49l3.52.9c1.17.33,2.33.71,3.49,1.06a91,91,0,0,1,13.56,5.54,84,84,0,0,1,23.11,17.6,111,111,0,0,1,16.18,23c8.75,16.22,14.38,33.17,20.54,49.56,3.07,8.21,6.25,16.31,10,24.09a108.19,108.19,0,0,0,13.49,21.85,64.61,64.61,0,0,0,19.6,16.32,72.36,72.36,0,0,0,24.79,7.58Z"/><path class="cls-2" d="M456.16,220.57l-1.51,1c-2.12,1.49-4.25,3-6.35,4.64-4.22,3.18-8.38,6.52-12.44,10a279.38,279.38,0,0,0-23.14,22.11c-14.54,15.58-27.09,32.89-36.33,51.68a150.16,150.16,0,0,0-15.8,59.89,143.29,143.29,0,0,0,2.16,31.29c.87,5.22,2.19,10.37,3.57,15.51,1.54,5.11,3.18,10.22,5.18,15.23l1.49,3.76,1.62,3.72c1.05,2.5,2.26,4.94,3.44,7.38l7.61,15.52c1.25,2.63,2.44,5.29,3.67,7.92s2.47,5.27,3.6,7.95l3.45,8,1.7,4,1.62,4.06,3.21,8.12,3,8.21,1.49,4.1,1.38,4.15,2.73,8.3c3.42,11.14,6.41,22.43,8.76,33.86a241,241,0,0,1,4.54,34.72c.33,5.84.34,11.7.1,17.55,0,1.46-.2,2.93-.29,4.38l-.36,4.38-.59,4.36-.3,2.18c-.1.72-.27,1.44-.4,2.17l-.84,4.31c-.31,1.44-.72,2.85-1.08,4.28l-.56,2.12c-.2.71-.45,1.4-.68,2.1-.48,1.39-.9,2.8-1.42,4.17a66.23,66.23,0,0,1-8.3,15.52A41,41,0,0,1,397.16,675a31.16,31.16,0,0,1-16.65,4,30.41,30.41,0,0,0,15.9-5.25,38.82,38.82,0,0,0,11.29-12.13,62.28,62.28,0,0,0,6.58-15.27c.38-1.33.67-2.7,1-4.05.16-.68.34-1.34.48-2l.35-2.06c.23-1.37.51-2.74.69-4.12l.46-4.15c.07-.7.17-1.38.21-2.08l.11-2.09.22-4.18v-4.19c0-1.4.05-2.79-.06-4.19-.22-5.58-.69-11.16-1.46-16.7a229.27,229.27,0,0,0-7-32.83c-3.15-10.77-6.9-21.36-11.05-31.79l-3.28-7.77-1.65-3.87-1.76-3.84L388,508.77l-3.74-7.57-1.87-3.77-2-3.74-3.95-7.46c-1.3-2.48-2.74-4.91-4.1-7.37s-2.74-4.91-4.16-7.34l-4.33-7.26-2.16-3.62-2.22-3.77c-1.52-2.59-3.05-5.18-4.44-7.86l-2.13-4-2-4.07c-2.68-5.43-5-11.06-7.2-16.75s-4-11.57-5.52-17.55a170.16,170.16,0,0,1-5.45-36.75,183.15,183.15,0,0,1,.39-18.74c.51-6.23,1.29-12.44,2.42-18.59s2.61-12.23,4.34-18.23,3.8-11.86,6.08-17.65c9.19-23.12,22.24-44.3,37.44-63.43A319.08,319.08,0,0,1,407.85,206c4.34-4.31,8.79-8.51,13.4-12.6q3.45-3.06,7.05-6c1.21-1,2.43-2,3.69-3l.89-.69A209.55,209.55,0,0,0,456.16,220.57Z"/><path class="cls-2" d="M672.68,272l.05.11a2.12,2.12,0,0,0,.19.24l.46.52c.3.36.71.75,1,1.12.7.76,1.54,1.52,2.31,2.29s1.65,1.52,2.48,2.28l1.27,1.14,1.32,1.1,2.65,2.22,2.76,2.14c1.83,1.47,3.76,2.81,5.68,4.19a220.05,220.05,0,0,0,24.62,14.87c4.35,2.13,8.7,4.39,13.21,6.27,2.25,1,4.48,2,6.77,2.92l6.89,2.68c1.15.44,2.3.92,3.46,1.33l3.51,1.18,7.06,2.39c4.75,1.48,9.55,2.79,14.37,4.2-5-.2-10-.3-15-.59l-7.54-.61-3.78-.3c-1.26-.12-2.51-.31-3.77-.46l-7.56-.95c-2.53-.31-5-.82-7.54-1.23-5.06-.77-10-1.95-15.09-3a236.58,236.58,0,0,1-29.85-9.18c-2.46-1-4.94-1.9-7.37-3l-3.67-1.61-3.65-1.76-1.82-.89-1.82-.95c-1.21-.65-2.43-1.25-3.64-2s-2.42-1.36-3.67-2.16c-.62-.39-1.22-.74-1.87-1.18l-1-.66c-.18-.13-.3-.19-.52-.36l-.65-.5Z"/><rect class="cls-3" width="1000" height="1000"/><path class="cls-4" d="M736,765.94s-104.9,70.72-231.68,70.72-231.68-74.44-231.68-74.44c25.67-7.57,96.77-19.7,129.36-43.25,40.06-28.94,37.54-59.4,37.54-95.21,0-62.32-12.69-249.59-12.69-249.59s68.08-55.65,68.08-121.55c0,0,102.94-27.72,167.5-5.73a26.14,26.14,0,0,1,17,18.68c12.82,53.51,52.66,240.73-61.57,370.71,0,0-23.15-1.48-53.86-9.7,0,49.69,16.83,78.56,43.28,97.72C632.41,742.52,714.31,759.63,736,765.94Z"/><path class="cls-5" d="M567.58,662.85C497,635.42,489.52,595,489.52,595c24.75,15.65,51.67,25.45,74.44,31.55C564.61,641.28,567.58,662.85,567.58,662.85Z"/><ellipse cx="551.44" cy="399.77" rx="9.73" ry="20.76"/><ellipse cx="642.57" cy="399.77" rx="9.73" ry="20.76"/><path class="cls-5" d="M602.26,401.26s7.9,66.39,25.42,82.88a10.15,10.15,0,0,1,.18,14.41c-5.82,6-14.61,11.63-25.6,8.42C602.26,507,586.79,486.35,602.26,401.26Z"/><path class="cls-5" d="M430.81,363.83c-6.76-7.71-22.26-19.53-37.61-16.36s-37,93.47,18.4,123,26.92-19.85,29-41.27S453.65,389.85,430.81,363.83Z"/><path class="cls-6" d="M394.85,377.79A9.42,9.42,0,0,1,409,372c6.29,4,13.12,9.89,13.75,17.24,1.2,13.89-10.51,40.92-4.32,59a47.74,47.74,0,0,1-25.65-36.06C390.83,399.23,392.76,386.51,394.85,377.79Z"/><path class="cls-1" d="M502.32,373.56,564,341.21S513.41,325.5,502.32,373.56Z"/><path class="cls-1" d="M617.21,343.84l53,16.52S650.57,323,617.21,343.84Z"/><path class="cls-7" d="M498,501.08s48.4,28.65,119.2,27.69l-4.13,53.47S528.57,582.24,498,501.08Z"/><path class="cls-5" d="M617.21,528.77c12.92.07,27.67-6,27.67-6l-28.49,16.61Z"/><path class="cls-8" d="M372,730.43,504.29,836.66,632.41,734.43l118.1,34.41s-96.94,140.63-253.78,128.9C360.2,887.53,243,766.51,243,766.51Z"/><path class="cls-9" d="M432.76,479.37"/><path class="cls-9" d="M428.44,464.37"/></svg>