<svg xmlns="http://www.w3.org/2000/svg" width="544" height="407" viewBox="0 0 544 407">
    <defs>
        <style>
            .cls-1{fill:#fff}.cls-2,.cls-5{fill:none}.cls-3{clip-path:url(#clip-path)}.cls-4{fill:#ccc}.cls-5{stroke:#666;stroke-miterlimit:10;stroke-width:2.596px}.cls-6{clip-path:url(#clip-path-2)}.cls-7{fill:gray}.cls-8{clip-path:url(#clip-path-3)}.cls-9{clip-path:url(#clip-path-4)}.cls-10{fill:#666}.cls-11{fill:#b3b3b3}.cls-12{fill:#999}.cls-13{fill:#e6e6e6}.cls-14{fill:#4d4d4d}.cls-15{fill:#f2f2f2}
        </style>
        <clipPath id="clip-path">
            <path id="Rectangle_34" d="M0 0h544v407H0z" class="cls-1" data-name="Rectangle 34" transform="translate(0 .355)"/>
        </clipPath>
        <clipPath id="clip-path-2">
            <path id="Tracé_42" d="M402.891 333.3c-17.585 17.585-38.155 25.51-45.98 17.7s.114-28.4 17.7-45.98 39.614-26.95 47.426-19.138-1.555 29.837-19.146 47.418z" class="cls-2" data-name="Tracé 42" transform="translate(-353.896 -283.104)"/>
        </clipPath>
        <clipPath id="clip-path-3">
            <path id="Tracé_46" d="M291.86 340.441c11.855 11.848 25.731 17.19 30.993 11.929s-.08-19.138-11.929-30.993-26.7-18.167-31.963-12.9 1.064 20.102 12.899 31.964z" class="cls-2" data-name="Tracé 46" transform="translate(-277.091 -306.602)"/>
        </clipPath>
        <clipPath id="clip-path-4">
            <path id="Tracé_50" d="M374.952 308c-11.942 28.235-29.861 47.627-40.036 43.33s-8.7-30.678 3.2-58.906 30.846-49.943 41.02-45.639 7.758 32.988-4.184 61.215z" class="cls-2" data-name="Tracé 50" transform="translate(-328.144 -246.24)"/>
        </clipPath>
    </defs>
    <g id="Groupe_4" data-name="Groupe 4" transform="translate(-854 -376.355)">
        <g id="Groupe_de_masques_1" class="cls-3" data-name="Groupe de masques 1" transform="translate(854 376)">
            <g id="Juriste_ordinateur" data-name="Juriste ordinateur" transform="translate(0 66.915)">
                <g id="Plante" transform="translate(0 138.232)">
                    <path id="Tracé_38" d="M338.014 359.918s1.64-6.352-4.458-8.367c0 0 .582-9.458-7.363-10.007s-9.72 10.784-9.72 10.784-9.8-1.734-8.575 7.591z" class="cls-4" data-name="Tracé 38" transform="translate(-268.215 -218.694)"/>
                    <path id="Tracé_39" d="M360.989 334.929c-6.875 6.881-16.614 20.3-17.4 31.24" class="cls-5" data-name="Tracé 39" transform="translate(-257.867 -220.6)"/>
                    <g id="Groupe_5" class="cls-6" data-name="Groupe 5" transform="translate(99.01 47.521)">
                        <path id="Tracé_40" d="M402.891 333.3c-17.585 17.585-38.155 25.51-45.98 17.7s.114-28.4 17.7-45.98 39.614-26.95 47.426-19.138-1.555 29.837-19.146 47.418z" class="cls-7" data-name="Tracé 40" transform="translate(-353.896 -283.104)"/>
                        <path id="Tracé_41" d="M429.738 278.759l-73.519 73.5" class="cls-5" data-name="Tracé 41" transform="translate(-353.225 -284.36)"/>
                        <path id="Ligne_5" d="M0 0l26.655 5.362" class="cls-5" data-name="Ligne 5" transform="translate(52.543 18.371)"/>
                        <path id="Ligne_6" d="M0 0l11.587 18.562" class="cls-5" data-name="Ligne 6" transform="translate(36.47 4.293)"/>
                        <path id="Ligne_7" d="M0 0l19.533 16.226" class="cls-5" data-name="Ligne 7" transform="translate(17.694 17.46)"/>
                        <path id="Ligne_8" d="M30.203 3.688L0 0" class="cls-5" data-name="Ligne 8" transform="translate(27.568 43.346)"/>
                        <path id="Ligne_9" d="M20.644 15.583L0 0" class="cls-5" data-name="Ligne 9" transform="translate(18.778 52.135)"/>
                        <path id="Ligne_10" d="M0 0l16.012 16.012" class="cls-5" data-name="Ligne 10" transform="translate(6.977 31.912)"/>
                        <path id="Ligne_11" d="M0 0l19.258 4.82" class="cls-5" data-name="Ligne 11" transform="translate(-5.373 52.215)"/>
                    </g>
                    <path id="Tracé_43" d="M312.013 341.529c4.639 4.632 11.206 13.682 11.741 21.052" class="cls-5" data-name="Tracé 43" transform="translate(-266.994 -218.692)"/>
                    <g id="Groupe_6" class="cls-8" data-name="Groupe 6" transform="translate(0 77.812)">
                        <path id="Tracé_44" d="M291.86 340.441c11.855 11.848 25.731 17.19 30.993 11.929s-.08-19.138-11.929-30.993-26.7-18.167-31.963-12.9 1.064 20.102 12.899 31.964z" class="cls-7" data-name="Tracé 44" transform="translate(-277.091 -306.602)"/>
                        <path id="Tracé_45" d="M274.174 303.669l49.535 49.531" class="cls-5" data-name="Tracé 45" transform="translate(-277.934 -307.449)"/>
                        <path id="Ligne_12" d="M17.973 0L0 3.615" class="cls-5" data-name="Ligne 12" transform="translate(-5.593 12.378)"/>
                        <path id="Ligne_13" d="M7.812 0L0 12.518" class="cls-5" data-name="Ligne 13" transform="translate(15.399 2.886)"/>
                        <path id="Ligne_14" d="M13.16 0L0 10.938" class="cls-5" data-name="Ligne 14" transform="translate(22.702 11.763)"/>
                        <path id="Ligne_15" d="M0 2.49L20.356 0" class="cls-5" data-name="Ligne 15" transform="translate(8.852 29.207)"/>
                        <path id="Ligne_16" d="M0 10.509L13.91 0" class="cls-5" data-name="Ligne 16" transform="translate(21.222 35.131)"/>
                        <path id="Ligne_17" d="M10.797 0L0 10.791" class="cls-5" data-name="Ligne 17" transform="translate(32.294 21.509)"/>
                        <path id="Ligne_18" d="M12.979 0L0 3.253" class="cls-5" data-name="Ligne 18" transform="translate(38.432 35.184)"/>
                    </g>
                    <path id="Tracé_47" d="M335.812 326.4c-4.686 11.038-10.135 30.645-7.517 42.841" class="cls-5" data-name="Tracé 47" transform="translate(-262.484 -223.067)"/>
                    <g id="Groupe_7" class="cls-9" data-name="Groupe 7" transform="translate(65.813)">
                        <path id="Tracé_48" d="M374.952 308c-11.942 28.235-29.861 47.627-40.036 43.33s-8.7-30.678 3.2-58.906 30.846-49.943 41.02-45.639 7.758 32.988-4.184 61.215z" class="cls-7" data-name="Tracé 48" transform="translate(-328.144 -246.24)"/>
                        <path id="Tracé_49" d="M383.307 236.231L333.4 354.225" class="cls-5" data-name="Tracé 49" transform="translate(-326.626 -249.134)"/>
                        <path id="Ligne_19" d="M0 14.887L28.255 0" class="cls-5" data-name="Ligne 19" transform="translate(40.402 10.687)"/>
                        <path id="Ligne_20" d="M0 0l26.187 8.421" class="cls-5" data-name="Ligne 20" transform="translate(11.169 24.363)"/>
                        <path id="Ligne_21" d="M0 .388L30.009 0" class="cls-5" data-name="Ligne 21" transform="translate(-.01 50.161)"/>
                        <path id="Ligne_22" d="M31.287 0L0 6.239" class="cls-5" data-name="Ligne 22" transform="translate(23.446 59.425)"/>
                        <path id="Ligne_23" d="M30.169 2.832L0 0" class="cls-5" data-name="Ligne 23" transform="translate(33.206 42.416)"/>
                        <path id="Ligne_24" d="M25.31 5.924L0 0" class="cls-5" data-name="Ligne 24" transform="translate(17.475 79.775)"/>
                        <path id="Ligne_25" d="M0 0l24.64 2.959" class="cls-5" data-name="Ligne 25" transform="translate(-4.307 70.062)"/>
                        <path id="Ligne_26" d="M0 4.96L20.577 0" class="cls-5" data-name="Ligne 26" transform="translate(-6.429 87.64)"/>
                        <path id="Ligne_27" d="M0 0l12.257 15.885" class="cls-5" data-name="Ligne 27" transform="translate(33.206 -2.279)"/>
                    </g>
                    <path id="Tracé_51" d="M329.739 360.912s-2.008-7.879 5.529-10.382c0 0-.716-11.734 9.1-12.417S356.42 351.5 356.42 351.5s12.163-2.149 10.643 9.418z" class="cls-7" data-name="Tracé 51" transform="translate(-261.94 -219.687)"/>
                    <path id="Tracé_52" d="M100.844 216.785l-1.526 9.84-7.932 51.262H44.775l-7.939-51.262-1.526-9.84z" class="cls-10" data-name="Tracé 52" transform="translate(4.287 -75.56)"/>
                </g>
                <g id="Scribe" transform="translate(187.599)">
                    <g id="Tete" transform="translate(93.547)">
                        <path id="Tracé_53" d="M593.278 205.865c-.422.462-.75.8-.951 1.017a1.151 1.151 0 0 1-.04.368 1.214 1.214 0 0 0 0 .382c-1.011 9.853-4.217 24.767-7.156 36.656a226.521 226.521 0 0 1-7.624 24.62 38.785 38.785 0 0 1-16.367-.114l-.241-.06c-.08.442-.167.89-.254 1.339a47.437 47.437 0 0 0-.536 3.24 18.913 18.913 0 0 0-.147 1.714c-.147 3.347.6 6.58 3.555 11.032a21.775 21.775 0 0 0 4.257 4.512c6.587 5.489 16.976 10.2 20.938 13.147-27.063 25.8-72.963 22.358-93.527-5.355 19.225-6.085 20.55-17.317 23.348-24.46 5.817-14.834 7.725-35.772 8.388-54.221.087-2.263.161-4.545.228-6.861 0-.669.033-1.285.047-1.9.04-1.975.053-3.842.04-5.636v-4.735c0-.857-.047-1.7-.074-2.524 0-.6-.04-1.185-.054-1.761-.067-1.854-.134-3.608-.181-5.281v-.91c-.054-1.968-.074-3.829 0-5.609a14.226 14.226 0 0 1 .054-1.513v-.221c.067-1.412.194-2.785.388-4.137a4.484 4.484 0 0 1 .107-.669c.033-.221.06-.348.087-.529s.074-.408.114-.616l.08-.4c.04-.167.074-.335.114-.5.194-.87.428-1.74.669-2.617l.08-.254a33.274 33.274 0 0 1 1.908-4.652l.268-.529.422-.8c.147-.261.294-.536.455-.8.074-.12.154-.268.241-.428l.1-.167c.074-.114.147-.241.221-.368l.127-.208.261-.428c.1-.154.194-.315.3-.475.234-.375.5-.777.8-1.2l.248-.361.261-.375c.214-.3.442-.609.669-.93.074-.107.161-.208.241-.321l.448-.569.475-.589.5-.6.529-.6c.127-.147.254-.295.388-.435s.268-.295.408-.442c.274-.295.556-.582.85-.877.435-.435.89-.877 1.372-1.339s.977-.87 1.5-1.3c.254-.214.522-.422.8-.629l.669-.5.047-.033q.214-.161.422-.3l.489-.348.368-.248c.348-.228.669-.455 1.071-.669s.6-.355.91-.529l.2-.114c.134-.08.268-.154.408-.221a30.071 30.071 0 0 1 3.032-1.433l.435-.167.582-.228.515-.181.489-.161.6-.187.623-.181c18.783-5.215 43.658 7.738 48.089 28.9.047.261.1.515.147.777s.094.515.141.763a31.878 31.878 0 0 1-8.371 27.338z" class="cls-4" data-name="Tracé 53" transform="translate(-495.186 -136.717)"/>
                        <path id="Tracé_54" d="M560.115 269.965c-4.23-.924-9.184-2.51-9.452-2.617-35.926-13.6-28.483-48.932-28.483-48.932a58.017 58.017 0 0 0 7.1 12.779c4.974 6.794 12.718 14.218 23.944 16.869-.08.442-.167.89-.254 1.339a46.802 46.802 0 0 0-.535 3.24c0 .214-.054.428-.074.636l-.04.455a3.878 3.878 0 0 1-.034.623c-.147 3.347.6 6.58 3.555 11.032a21.772 21.772 0 0 0 4.271 4.579z" class="cls-11" data-name="Tracé 54" transform="translate(-487.566 -116.052)"/>
                        <path id="Tracé_55" d="M594.45 178.591c-19.78-.482-33.918-9.492-45.9-11.607s-16.494 17.766-18.294 26.521-10.135 11.828-10.135 11.828c-.107-18.248-2.41-27.338 4.358-39.066 1.513-2.624 8.32-14.432 21.595-18.12 18.783-5.215 43.664 7.738 48.1 28.9.102.519.196 1.035.276 1.544z" data-name="Tracé 55" transform="translate(-488.111 -136.7)"/>
                        <path id="Tracé_56" d="M524.95 153.834s-13.281 18.381-2.745 42.326a2.939 2.939 0 0 0 5.4-.047c3.537-8.622 8.283-26.1-2.655-42.279z" data-name="Tracé 56" transform="translate(-488.549 -134.722)"/>
                        <path id="Tracé_57" d="M552.71 139.3s-21.963 5.623-29.192 30.792a2.932 2.932 0 0 0 4.17 3.421c8.267-4.366 23.1-14.768 25.022-34.213z" data-name="Tracé 57" transform="translate(-487.029 -138.924)"/>
                        <path id="Tracé_58" d="M533.061 181.645c-1.131-2.678-4.257-7.31-8.7-7.839s-18.5 21.943-6.172 34.962 9.09-2.939 11.594-8.548 7.127-9.484 3.278-18.575z" class="cls-11" data-name="Tracé 58" transform="translate(-489.966 -128.951)"/>
                        <path id="Tracé_59" d="M558.93 183.749a2.557 2.557 0 0 0-.047-.315l-.067-.368a24.4 24.4 0 0 0-.174-.743 17.945 17.945 0 0 0-.449-1.459 11.846 11.846 0 0 0-1.3-2.644 5.588 5.588 0 0 0-1.893-1.827 3.728 3.728 0 0 0-2.5-.408 10.882 10.882 0 0 0-2.985 1 24.443 24.443 0 0 0-2.912 1.667 43.63 43.63 0 0 0-5.4 4.257 43.74 43.74 0 0 1 4.639-5.215 26.057 26.057 0 0 1 2.731-2.3 13.388 13.388 0 0 1 3.347-1.794 7.51 7.51 0 0 1 2.075-.388 6.694 6.694 0 0 1 2.189.328 8.855 8.855 0 0 1 3.554 2.3 15.5 15.5 0 0 1 2.376 3.18c.321.562.616 1.138.884 1.72.141.295.268.589.388.89l.181.462c.06.167.114.295.181.515l.723 2.356-5.476 1.305z" data-name="Tracé 59" transform="translate(-481.884 -129.12)"/>
                        <path id="Tracé_60" d="M561.605 182.661c.181-.254.328-.428.5-.636l.489-.582c.335-.375.669-.75 1.024-1.111a20.659 20.659 0 0 1 2.309-2.048 9.972 9.972 0 0 1 2.918-1.58 5.12 5.12 0 0 1 1.861-.254 4.739 4.739 0 0 1 .977.167l.428.154.408.187a5.729 5.729 0 0 1 1.379 1.011 8.111 8.111 0 0 1 1 1.232 12.4 12.4 0 0 1 1.259 2.678 22.883 22.883 0 0 1 1.078 5.536 22.4 22.4 0 0 0-2.122-5.054 11 11 0 0 0-1.567-2.082 6.387 6.387 0 0 0-.93-.756 3.568 3.568 0 0 0-.977-.428l-.241-.054h-.241a1.888 1.888 0 0 0-.395.033 2.764 2.764 0 0 0-.83.341 7.366 7.366 0 0 0-1.66 1.486 16.682 16.682 0 0 0-1.459 2.008q-.341.542-.669 1.1l-.295.556c-.094.181-.2.388-.254.529l-.884 2.2-4.512-2.711z" data-name="Tracé 60" transform="translate(-476.392 -128.186)"/>
                        <path id="Tracé_61" d="M566.11 219.4s-4.686 6.727-9.612 5.864a5 5 0 0 1-2.678-1.406l-.361-.415a5.65 5.65 0 0 1-1.138-2.952c-.924-8.033 4.016-19.961 9.144-34.688-.021-.01-6.865 27.274 4.645 33.597z" class="cls-11" data-name="Tracé 61" transform="translate(-478.701 -125.481)"/>
                        <ellipse id="Ellipse_4" cx="5.215" cy="2.979" data-name="Ellipse 4" rx="5.215" ry="2.979" transform="rotate(-69.99 81.447 -13.177)"/>
                        <ellipse id="Ellipse_5" cx="5.215" cy="2.979" data-name="Ellipse 5" rx="5.215" ry="2.979" transform="rotate(-69.99 94.153 -25.881)"/>
                        <path id="Tracé_62" d="M563.52 226.245l-1.573 7.5s-5.134 3.38-16.152-1.339-7.363-19.847-7.363-19.847c-.5 8.528 8.421 12.049 16.567 13.341a32.8 32.8 0 0 0 8.521.345z" class="cls-1" data-name="Tracé 62" transform="translate(-482.852 -117.744)"/>
                        <path id="Tracé_63" d="M520.984 180.571a2.678 2.678 0 0 1 4.358-.288c1.339 1.64 2.677 3.862 2.155 5.911-.937 3.869-6.553 10.128-6.52 15.583a13.636 13.636 0 0 1-3.675-12.089 26.469 26.469 0 0 1 3.682-9.117z" class="cls-12" data-name="Tracé 63" transform="translate(-488.86 -127.361)"/>
                        <path id="Tracé_64" d="M557.869 223.521a18.358 18.358 0 0 0 5.074-1.627l-5.523 3.775z" class="cls-11" data-name="Tracé 64" transform="translate(-477.194 -115.046)"/>
                        <path id="Tracé_65" d="M564.492 219.4c-11.494-6.312-4.686-33.6-4.686-33.6s-2.306 26.9 4.686 33.6z" class="cls-13" data-name="Tracé 65" transform="translate(-477.083 -125.481)"/>
                        <path id="Tracé_66" d="M543.353 148.42s19.473-15.931 40.123-6.339 28.322 26.407 26.849 43.075c0 0-23.342 2.919-62.046-14.178z" data-name="Tracé 66" transform="translate(-481.261 -139.008)"/>
                    </g>
                    <g id="Buste" transform="translate(0 161.698)">
                        <path id="Tracé_67" d="M161.634 225.717l-11.514 51.925h51.811l5.308-34.574-12.464-25.437z" class="cls-4" data-name="Tracé 67" transform="translate(-150.121 -98.781)"/>
                        <path id="Tracé_68" d="M666.1 386.895s-35.82 37.171-88.234 56.405l-113.314-.094 13.789-34.48c-17.913-1.091-35.317-9.887-50.874-20.959l27.15-95.8s43.156-20.49 60.1-27.532c20.537 27.719 66.464 31.167 93.527 5.355 11.909 6.694 52.527 30.069 52.527 30.069s5.08 53.298 5.329 87.036z" class="cls-7" data-name="Tracé 68" transform="translate(-421.216 -264.443)"/>
                        <path id="Tracé_69" d="M183.738 280.663l13.783-34.48 10.161-39.327 8.856 73.9z" class="cls-10" data-name="Tracé 69" transform="translate(-140.402 -101.896)"/>
                        <path id="Tracé_70" d="M256.227 187.555l-10.737 83.734 27.98-.951z" class="cls-10" data-name="Tracé 70" transform="translate(-122.55 -107.476)"/>
                    </g>
                    <g id="Ordi" transform="translate(101.399 219.091)">
                        <path id="Rectangle_35" d="M0 0h53.866v9.278H0z" class="cls-14" data-name="Rectangle 35" transform="translate(0 112.19)"/>
                        <path id="Tracé_71" d="M707.826 430.433H536.208l38.825-116.012a7.986 7.986 0 0 1 7.618-5.456h157.587a5.944 5.944 0 0 1 5.636 7.825z" class="cls-12" data-name="Tracé 71" transform="translate(-491.178 -308.965)"/>
                        <circle id="Ellipse_6" cx="12.491" cy="12.491" r="12.491" class="cls-14" data-name="Ellipse 6" transform="translate(138.671 50.506)"/>
                        <path id="Tracé_72" d="M673.47 352.095a14.981 14.981 0 0 1-1.814-.114 13.99 13.99 0 0 1-11.333-9.1 13.761 13.761 0 0 1-.743-3.193 14.822 14.822 0 0 1-.087-1.821 15.165 15.165 0 0 1 .114-1.533 13.99 13.99 0 0 1 13.83-12.163 14.989 14.989 0 0 1 1.814.114 13.968 13.968 0 0 1 12.049 15.647 14.646 14.646 0 0 1-.529 2.403 13.605 13.605 0 0 1-1.412 3.093c-.134.221-.281.442-.428.669s-.308.422-.469.629a14.057 14.057 0 0 1-10.992 5.374z" class="cls-11" data-name="Tracé 72" transform="translate(-455.537 -304.568)"/>
                        <path id="Tracé_73" d="M673.724 325.8a12.356 12.356 0 0 1 1.64.107 12.612 12.612 0 0 1 10.891 14.138 11.468 11.468 0 0 1-.234 1.285c-.067.3-.147.6-.241.89a12.44 12.44 0 0 1-1.259 2.811c-.12.208-.248.4-.381.6s-.281.388-.428.576a12.618 12.618 0 0 1-19.781.154 12.789 12.789 0 0 1-2.008-3.621 12.582 12.582 0 0 1-.67-2.885 13.465 13.465 0 0 1-.074-1.647 13.773 13.773 0 0 1 .107-1.386 12.618 12.618 0 0 1 12.5-11m0-2.678a15.329 15.329 0 0 0-15.155 13.328 15.918 15.918 0 0 0-.127 1.68 15.242 15.242 0 0 0 .094 2.008 15.547 15.547 0 0 0 .817 3.5 15.307 15.307 0 0 0 26.448 4.17c.181-.234.355-.469.515-.669a6.364 6.364 0 0 0 .475-.736 14.716 14.716 0 0 0 1.54-3.347c.107-.341.208-.669.295-1.071a15.08 15.08 0 0 0 .281-1.553 15.3 15.3 0 0 0-15.188-17.3z" class="cls-1" data-name="Tracé 73" transform="translate(-455.824 -304.867)"/>
                        <path id="Tracé_74" d="M680.2 330.966a3.822 3.822 0 0 1-6.841-2.785 3.769 3.769 0 0 1 1.064-2.189 12.617 12.617 0 0 1 5.777 4.974z" class="cls-15" data-name="Tracé 74" transform="translate(-451.538 -304.043)"/>
                        <path id="Tracé_75" d="M685.433 338.263a12.391 12.391 0 0 1-2.329 4.853 12.625 12.625 0 0 1-22.572-8.033l4.458-1.339 5.543 3.066 6.788 1.56 7.089-1.158z" class="cls-13" data-name="Tracé 75" transform="translate(-455.237 -301.801)"/>
                        <path id="Tracé_76" d="M668.611 340.532l-7.363-.957a12.579 12.579 0 0 1-.669-2.885l3.26-2.617z" class="cls-10" data-name="Tracé 76" transform="translate(-455.223 -301.707)"/>
                        <path id="Tracé_77" d="M390.62 195.048l1 5.971 3.762.489z" class="cls-14" data-name="Tracé 77" transform="translate(-181.992 -162.703)"/>
                        <path id="Tracé_78" d="M681.694 338.624a12.44 12.44 0 0 1-1.258 2.811c-.12.208-.248.4-.381.6l-7.423-.964 6.828-5.489z" class="cls-10" data-name="Tracé 78" transform="translate(-451.739 -301.272)"/>
                        <path id="Tracé_79" d="M680.163 338.624a12.439 12.439 0 0 1-1.258 2.811l-.977-5.857z" class="cls-14" data-name="Tracé 79" transform="translate(-450.207 -301.272)"/>
                        <path id="Tracé_80" d="M390.859 201.376l17.277 2.249-7.47-10.135z" class="cls-10" data-name="Tracé 80" transform="translate(-181.923 -163.153)"/>
                        <path id="Tracé_81" d="M398.467 193.49l1.573 9.365 5.9.77z" class="cls-14" data-name="Tracé 81" transform="translate(-179.723 -163.153)"/>
                    </g>
                    <g id="Avant_bras" data-name="Avant bras" transform="translate(32.8 287.711)">
                        <path id="Tracé_82" d="M194.542 248.938l85.4-5.4 1.2 19.593H271.1l-25.638 7.015h-69.9z" class="cls-4" data-name="Tracé 82" transform="translate(-175.565 -217.302)"/>
                        <path id="Tracé_83" d="M256.535 249.427l18.087-23.542 9.619-2.7-15.349 45.835H257.74z" class="cls-4" data-name="Tracé 83" transform="translate(-152.157 -223.187)"/>
                        <path id="Tracé_84" d="M249.675 269.02l19.914-5.984 13.227-38.892 3.407-.957-15.348 45.833z" class="cls-13" data-name="Tracé 84" transform="translate(-154.14 -223.187)"/>
                    </g>
                </g>
            </g>
        </g>
    </g>
</svg>
