<svg xmlns="http://www.w3.org/2000/svg" width="635" height="407" viewBox="0 0 635 407">
    <defs>
        <style>
            .cls-1{fill:#fff}.cls-2,.cls-5{fill:none}.cls-3{clip-path:url(#clip-path)}.cls-4{fill:#b0bf91}.cls-5{stroke:#7ea52a;stroke-miterlimit:10;stroke-width:3.907px}.cls-6{clip-path:url(#clip-path-2)}.cls-7{fill:#91bf30}.cls-8{clip-path:url(#clip-path-3)}.cls-9{clip-path:url(#clip-path-4)}.cls-10{fill:#a2bf65}.cls-11{fill:#c28362}.cls-12{fill:#f7e4b2}.cls-13{fill:#e69b74}.cls-14{fill:#ffd0b5}.cls-15{fill:#e6bba3}.cls-16{fill:#cda691}.cls-17{fill:#ffe0ce}.cls-18{fill:gray}.cls-19{fill:#ddcca0}.cls-20{fill:#999}.cls-21{fill:#b3b3b3}.cls-22{fill:#59a7ff}.cls-23{fill:#ffac81}.cls-24{fill:#f7d06d}.cls-25{fill:#ddc483}
        </style>
        <clipPath id="clip-path">
            <path id="Rectangle_188" d="M0 0h635v407H0z" class="cls-1" data-name="Rectangle 188" transform="translate(715 293)"/>
        </clipPath>
        <clipPath id="clip-path-2">
            <path id="Tracé_508" d="M589.712 484.595c-20.526 20.526-44.538 29.778-53.672 20.659s.133-33.145 20.659-53.672 46.241-31.458 55.36-22.339-1.813 34.825-22.347 55.352z" class="cls-2" data-name="Tracé 508" transform="translate(-410.037 -209.171)"/>
        </clipPath>
        <clipPath id="clip-path-3">
            <path id="Tracé_512" d="M434.189 500.855c13.838 13.83 30.036 20.065 36.177 13.924s-.094-22.339-13.924-36.177-31.169-21.206-37.31-15.057 1.242 23.464 15.057 37.31z" class="cls-2" data-name="Tracé 512" transform="translate(-410.037 -209.171)"/>
        </clipPath>
        <clipPath id="clip-path-4">
            <path id="Tracé_516" d="M548.409 442.62c-13.94 32.958-34.857 55.594-46.733 50.578s-10.158-35.81 3.735-68.76 36.005-58.3 47.882-53.273 9.056 38.505-4.884 71.455z" class="cls-2" data-name="Tracé 516" transform="translate(-410.037 -209.171)"/>
        </clipPath>
    </defs>
    <g id="Groupe_de_masques_14" class="cls-3" data-name="Groupe de masques 14" transform="translate(-715 -293)">
        <g id="Juriste_ordinateur" data-name="Juriste ordinateur" transform="translate(708.088 302.732)">
            <g id="Plante">
                <path id="Tracé_504" d="M498.425 535.376s1.914-7.415-5.2-9.767c0 0 .68-11.041-8.6-11.681s-11.345 12.588-11.345 12.588-11.439-2.024-10.009 8.861z" class="cls-4" data-name="Tracé 504" transform="translate(-410.037 -209.171)"/>
                <path id="Tracé_505" d="M537.321 503.981c-8.025 8.032-19.393 23.7-20.315 36.466" class="cls-5" data-name="Tracé 505" transform="translate(-410.037 -209.171)"/>
                <g id="Groupe_42" class="cls-6" data-name="Groupe 42">
                    <path id="Tracé_506" d="M589.712 484.595c-20.526 20.526-44.538 29.778-53.672 20.659s.133-33.145 20.659-53.672 46.241-31.458 55.36-22.339-1.813 34.825-22.347 55.352z" class="cls-7" data-name="Tracé 506" transform="translate(-410.037 -209.171)"/>
                    <path id="Tracé_507" d="M621.834 419.46l-85.817 85.794" class="cls-5" data-name="Tracé 507" transform="translate(-410.037 -209.171)"/>
                    <path id="Ligne_130" d="M0 0l31.114 6.259" class="cls-5" data-name="Ligne 130" transform="translate(183.816 238.269)"/>
                    <path id="Ligne_131" d="M0 0l13.525 21.667" class="cls-5" data-name="Ligne 131" transform="translate(165.056 221.837)"/>
                    <path id="Ligne_132" d="M0 0l22.8 18.94" class="cls-5" data-name="Ligne 132" transform="translate(143.138 237.207)"/>
                    <path id="Ligne_133" d="M35.255 4.305L0 0" class="cls-5" data-name="Ligne 133" transform="translate(154.663 267.422)"/>
                    <path id="Ligne_134" d="M24.097 18.19L0 0" class="cls-5" data-name="Ligne 134" transform="translate(144.404 277.682)"/>
                    <path id="Ligne_135" d="M0 0l18.69 18.69" class="cls-5" data-name="Ligne 135" transform="translate(130.629 254.077)"/>
                    <path id="Ligne_136" d="M0 0l22.48 5.626" class="cls-5" data-name="Ligne 136" transform="translate(116.212 277.775)"/>
                </g>
                <path id="Tracé_509" d="M469.5 513.912c5.415 5.407 13.08 15.971 13.705 24.574" class="cls-5" data-name="Tracé 509" transform="translate(-410.037 -209.171)"/>
                <g id="Groupe_43" class="cls-8" data-name="Groupe 43">
                    <path id="Tracé_510" d="M434.189 500.855c13.838 13.83 30.036 20.065 36.177 13.924s-.094-22.339-13.924-36.177-31.169-21.206-37.31-15.057 1.242 23.464 15.057 37.31z" class="cls-7" data-name="Tracé 510" transform="translate(-410.037 -209.171)"/>
                    <path id="Tracé_511" d="M412.561 456.942l57.821 57.821" class="cls-5" data-name="Tracé 511" transform="translate(-410.037 -209.171)"/>
                    <path id="Ligne_137" d="M20.98 0L0 4.219" class="cls-5" data-name="Ligne 137" transform="translate(.383 266.633)"/>
                    <path id="Ligne_138" d="M9.119 0L0 14.612" class="cls-5" data-name="Ligne 138" transform="translate(24.886 255.553)"/>
                    <path id="Ligne_139" d="M15.362 0L0 12.768" class="cls-5" data-name="Ligne 139" transform="translate(33.411 265.914)"/>
                    <path id="Ligne_140" d="M0 2.907L23.761 0" class="cls-5" data-name="Ligne 140" transform="translate(17.245 286.277)"/>
                    <path id="Ligne_141" d="M0 12.267L16.237 0" class="cls-5" data-name="Ligne 141" transform="translate(31.684 293.192)"/>
                    <path id="Ligne_142" d="M12.603 0L0 12.596" class="cls-5" data-name="Ligne 142" transform="translate(44.608 277.291)"/>
                    <path id="Ligne_143" d="M15.151 0L0 3.797" class="cls-5" data-name="Ligne 143" transform="translate(51.773 293.254)"/>
                </g>
                <path id="Tracé_513" d="M502.543 491.143c-5.47 12.885-11.83 35.771-8.775 50.007" class="cls-5" data-name="Tracé 513" transform="translate(-410.037 -209.171)"/>
                <g id="Groupe_44" class="cls-9" data-name="Groupe 44">
                    <path id="Tracé_514" d="M548.409 442.62c-13.94 32.958-34.857 55.594-46.733 50.578s-10.158-35.81 3.735-68.76 36.005-58.3 47.882-53.273 9.056 38.505-4.884 71.455z" class="cls-7" data-name="Tracé 514" transform="translate(-410.037 -209.171)"/>
                    <path id="Tracé_515" d="M559.934 355.466L501.675 493.2" class="cls-5" data-name="Tracé 515" transform="translate(-410.037 -209.171)"/>
                    <path id="Ligne_144" d="M0 17.378L32.981 0" class="cls-5" data-name="Ligne 144" transform="translate(130.894 173.83)"/>
                    <path id="Ligne_145" d="M0 0l30.567 9.83" class="cls-5" data-name="Ligne 145" transform="translate(96.772 189.794)"/>
                    <path id="Ligne_146" d="M0 .453L35.029 0" class="cls-5" data-name="Ligne 146" transform="translate(83.723 219.907)"/>
                    <path id="Ligne_147" d="M36.521 0L0 7.282" class="cls-5" data-name="Ligne 147" transform="translate(111.102 230.721)"/>
                    <path id="Ligne_148" d="M35.216 3.305L0 0" class="cls-5" data-name="Ligne 148" transform="translate(122.495 210.867)"/>
                    <path id="Ligne_149" d="M29.543 6.915L0 0" class="cls-5" data-name="Ligne 149" transform="translate(104.133 254.475)"/>
                    <path id="Ligne_150" d="M0 0l28.762 3.454" class="cls-5" data-name="Ligne 150" transform="translate(78.707 243.137)"/>
                    <path id="Ligne_151" d="M0 5.79L24.019 0" class="cls-5" data-name="Ligne 151" transform="translate(76.23 263.656)"/>
                    <path id="Ligne_152" d="M0 0l14.307 18.542" class="cls-5" data-name="Ligne 152" transform="translate(122.495 158.695)"/>
                </g>
                <path id="Tracé_517" d="M496.089 535.376s-2.344-9.2 6.454-12.119c0 0-.836-13.7 10.627-14.494s14.065 15.627 14.065 15.627 14.2-2.508 12.424 10.994z" class="cls-10" data-name="Tracé 517" transform="translate(-410.037 -209.171)"/>
                <path id="Tracé_518" d="M129.628 326.2l-1.782 11.486-9.259 59.837H64.181l-9.267-59.833-1.781-11.49z" class="cls-11" data-name="Tracé 518"/>
            </g>
            <g id="Scribe">
                <path id="Tracé_519" d="M921.776 540.853s-41.81 43.389-102.991 65.847h-11.932v-18.488l5.227-.18-5.188-24.9.148-107.211 8.6-32.489 1.563-5.8s28.825-7.493 37.076-13.447c11.252 6.313 44.468 25.41 56.711 32.45a10.22 10.22 0 0 1 5.087 7.946c1.394 15.854 5.465 63.819 5.699 96.272z" class="cls-12" data-name="Tracé 519" transform="translate(-410.037 -209.171)"/>
                <path id="Tracé_520" d="M335.042 176.776l50.687-15.94 57.423 18.823 11.806 21.441-143.146-6.509z" class="cls-13" data-name="Tracé 520"/>
                <g id="Tete">
                    <path id="Tracé_521" d="M859.627 289.886c-.492.539-.875.93-1.11 1.188a1.344 1.344 0 0 1-.047.43 1.417 1.417 0 0 0 0 .445c-1.18 11.5-4.923 28.91-8.353 42.788a264.43 264.43 0 0 1-8.9 28.739 45.272 45.272 0 0 1-19.1-.133l-.281-.07c-.094.516-.2 1.039-.3 1.563-.258 1.328-.477 2.571-.625 3.782-.086.68-.148 1.344-.172 2-.172 3.907.7 7.681 4.149 12.877a25.417 25.417 0 0 0 4.969 5.266c7.689 6.407 19.815 11.908 24.441 15.346-10.939 10.431-23 10.939-37.076 13.447l-10.111 38.287-7.993-31.333c-21.167-.727-41.561-9.884-53.992-26.66 22.441-7.1 23.988-20.214 27.254-28.551 6.79-17.315 9.017-41.756 9.791-63.291.1-2.641.188-5.305.266-8.009 0-.781.039-1.5.055-2.219.047-2.305.063-4.485.047-6.579v-5.524c0-1-.055-1.985-.086-2.946 0-.7-.047-1.383-.062-2.055-.078-2.164-.156-4.212-.211-6.165v-1.063c-.062-2.3-.086-4.469 0-6.548a16.585 16.585 0 0 1 .063-1.766v-.258a50.98 50.98 0 0 1 .453-4.829 5.251 5.251 0 0 1 .125-.781c.039-.258.07-.406.1-.617s.086-.477.133-.719l.094-.469c.047-.2.086-.391.133-.586.227-1.016.5-2.032.781-3.055l.094-.3a38.831 38.831 0 0 1 2.227-5.43l.313-.617.492-.93c.172-.3.344-.625.531-.938.086-.141.18-.313.281-.5l.117-.2c.086-.133.172-.281.258-.43l.148-.242.3-.5c.117-.18.227-.367.352-.555.273-.438.586-.906.93-1.4l.289-.422.3-.438c.25-.352.516-.711.781-1.086.086-.125.188-.242.281-.375l.523-.664.555-.688.578-.7.617-.7c.148-.172.3-.344.453-.508s.313-.344.477-.516c.32-.344.649-.68.992-1.024.508-.508 1.039-1.024 1.6-1.563s1.141-1.016 1.75-1.516c.3-.25.609-.492.93-.734l.781-.586.055-.039q.25-.188.492-.352l.57-.406.43-.289c.406-.266.781-.531 1.25-.781s.7-.414 1.063-.617l.234-.133c.156-.094.313-.18.477-.258a35.106 35.106 0 0 1 3.54-1.672l.508-.2.68-.266.6-.211.57-.188.7-.219.727-.211c21.925-6.087 50.961 9.033 56.133 33.739.055.3.117.6.172.906s.109.6.164.891a37.219 37.219 0 0 1-9.75 31.936z" class="cls-14" data-name="Tracé 521" transform="translate(-410.037 -209.171)"/>
                    <path id="Tracé_522" d="M829.81 388.831c-4.938-1.078-10.72-2.93-11.033-3.055-41.936-15.87-33.247-57.118-33.247-57.118a67.719 67.719 0 0 0 8.29 14.916c5.806 7.931 14.846 16.6 27.949 19.69-.094.516-.2 1.039-.3 1.563-.258 1.328-.477 2.571-.625 3.782 0 .25-.062.5-.086.742l-.047.531a4.526 4.526 0 0 1-.039.727c-.172 3.907.7 7.681 4.149 12.877a25.413 25.413 0 0 0 4.985 5.345z" class="cls-15" data-name="Tracé 522" transform="translate(-410.037 -209.171)"/>
                    <path id="Tracé_523" d="M869.253 258.069c-23.089-.563-39.592-11.08-53.578-13.549s-19.253 20.737-21.355 30.958-11.83 13.807-11.83 13.807c-.125-21.3-2.813-31.911 5.087-45.6 1.766-3.063 9.712-16.846 25.207-21.152 21.925-6.087 50.968 9.033 56.141 33.739.125.602.234 1.203.328 1.797z" data-name="Tracé 523" transform="translate(-410.037 -209.171)"/>
                    <path id="Tracé_524" d="M787.616 231.479s-15.5 21.456-3.2 49.406a3.43 3.43 0 0 0 6.3-.055c4.128-10.064 9.668-30.465-3.1-49.351z" data-name="Tracé 524" transform="translate(-410.037 -209.171)"/>
                    <path id="Tracé_525" d="M821.793 209.609s-25.637 6.563-34.075 35.943a3.422 3.422 0 0 0 4.868 3.993c9.649-5.095 26.964-17.237 29.207-39.936z" data-name="Tracé 525" transform="translate(-410.037 -209.171)"/>
                    <path id="Tracé_526" d="M795.43 270.681c-1.321-3.125-4.969-8.533-10.158-9.15s-21.589 25.613-7.2 40.811 10.611-3.43 13.533-9.978 8.318-11.073 3.825-21.683z" class="cls-15" data-name="Tracé 526" transform="translate(-410.037 -209.171)"/>
                    <path id="Tracé_527" d="M835.061 272.939a2.993 2.993 0 0 0-.055-.367l-.078-.43c-.062-.289-.133-.578-.2-.867a20.505 20.505 0 0 0-.524-1.7 13.83 13.83 0 0 0-1.516-3.086 6.523 6.523 0 0 0-2.211-2.133 4.352 4.352 0 0 0-2.922-.477 12.7 12.7 0 0 0-3.485 1.164 28.55 28.55 0 0 0-3.4 1.946 50.94 50.94 0 0 0-6.306 4.969 51.052 51.052 0 0 1 5.415-6.087 30.418 30.418 0 0 1 3.188-2.68 15.627 15.627 0 0 1 3.907-2.094 8.765 8.765 0 0 1 2.422-.453 7.815 7.815 0 0 1 2.555.383A10.337 10.337 0 0 1 836 263.7a18.1 18.1 0 0 1 2.774 3.711c.375.656.719 1.328 1.031 2.008.164.344.313.688.453 1.039l.211.539c.07.2.133.344.211.6l.844 2.75-6.392 1.524z" data-name="Tracé 527" transform="translate(-410.037 -209.171)"/>
                    <path id="Tracé_528" d="M844.593 272.759c.211-.3.383-.5.578-.742l.57-.68c.391-.438.781-.875 1.2-1.3a24.123 24.123 0 0 1 2.7-2.391 11.642 11.642 0 0 1 3.407-1.844 5.976 5.976 0 0 1 2.172-.3 5.531 5.531 0 0 1 1.141.2l.5.18.477.219a6.69 6.69 0 0 1 1.61 1.18 9.471 9.471 0 0 1 1.164 1.438 14.474 14.474 0 0 1 1.469 3.125 26.714 26.714 0 0 1 1.258 6.462 26.154 26.154 0 0 0-2.477-5.9 12.849 12.849 0 0 0-1.828-2.43 7.464 7.464 0 0 0-1.086-.883 4.166 4.166 0 0 0-1.141-.5l-.281-.062h-.281a2.2 2.2 0 0 0-.461.039 3.227 3.227 0 0 0-.969.4 8.6 8.6 0 0 0-1.938 1.735 19.467 19.467 0 0 0-1.7 2.344q-.4.633-.781 1.289l-.344.649a8.624 8.624 0 0 0-.3.617l-1.031 2.571-5.266-3.165z" data-name="Tracé 528" transform="translate(-410.037 -209.171)"/>
                    <path id="Tracé_529" d="M847.156 318.8s-5.47 7.853-11.22 6.845A5.837 5.837 0 0 1 832.81 324l-.422-.484a6.6 6.6 0 0 1-1.328-3.446c-1.078-9.376 4.688-23.3 10.674-40.49-.024-.008-8.017 31.841 5.422 39.22z" class="cls-15" data-name="Tracé 529" transform="translate(-410.037 -209.171)"/>
                    <ellipse id="Ellipse_81" cx="6.087" cy="3.477" data-name="Ellipse 81" rx="6.087" ry="3.477" transform="rotate(-69.99 262.616 -254.704)"/>
                    <ellipse id="Ellipse_82" cx="6.087" cy="3.477" data-name="Ellipse 82" rx="6.087" ry="3.477" transform="rotate(-69.99 277.447 -269.533)"/>
                    <path id="Tracé_530" d="M839.288 335.823l-1.836 8.759s-5.993 3.946-18.854-1.563-8.6-23.167-8.6-23.167c-.586 9.955 9.83 14.065 19.339 15.573a38.288 38.288 0 0 0 9.947.4z" class="cls-1" data-name="Tracé 530" transform="translate(-410.037 -209.171)"/>
                    <path id="Tracé_531" d="M782.623 271.282a3.125 3.125 0 0 1 5.087-.336c1.563 1.914 3.125 4.508 2.516 6.9-1.094 4.516-7.65 11.822-7.611 18.19a15.916 15.916 0 0 1-4.29-14.111 30.9 30.9 0 0 1 4.3-10.642z" class="cls-16" data-name="Tracé 531" transform="translate(-410.037 -209.171)"/>
                    <path id="Tracé_532" d="M839.3 335.792a21.43 21.43 0 0 0 5.923-1.9l-6.446 4.407z" class="cls-15" data-name="Tracé 532" transform="translate(-410.037 -209.171)"/>
                    <path id="Tracé_533" d="M847.156 318.8c-13.416-7.368-5.47-39.217-5.47-39.217s-2.695 31.4 5.47 39.217z" class="cls-17" data-name="Tracé 533" transform="translate(-410.037 -209.171)"/>
                    <path id="Tracé_534" d="M817.6 220.157s22.73-18.6 46.835-7.4 33.06 30.825 31.341 50.281c0 0-27.246 3.407-72.425-16.549z" data-name="Tracé 534" transform="translate(-410.037 -209.171)"/>
                </g>
                <path id="Tracé_535" d="M791.968 491.393l-12.533 97.757 27.442-.93v18.487l-82.043-.07-10.334-86.185-11.853 45.905-14.557-29.692-38.674 9.435q-3.126-2.047-6.142-4.212L673.7 434.541a10.228 10.228 0 0 1 5.469-6.462c12.5-5.907 49.64-23.363 65.955-30.145.141.188.281.383.438.57 9.689 11.861 51.945 19.8 51.945 19.8l1.61 6.251 7.993 31.333-.147 107.212z" class="cls-12" data-name="Tracé 535" transform="translate(-410.037 -209.171)"/>
                <g id="Buste">
                    <path id="Tracé_536" d="M702.611 566.341l-6.188 40.259v.078h-60.478l13.439-60.611 38.678-9.439z" class="cls-12" data-name="Tracé 536" transform="translate(-410.037 -209.171)"/>
                    <path id="Tracé_537" d="M304.428 311.265l10.33 86.185-28.371-.023-9.908-.008 16.1-40.248z" class="cls-18" data-name="Tracé 537"/>
                    <path id="Tracé_538" d="M396.879 353.951l-.039 25.082-27.442.93 12.533-97.741z" class="cls-18" data-name="Tracé 538"/>
                    <path id="Tracé_539" d="M314.765 397.527l-28.379-.078-9.908-.031 16.1-40.248 11.853-45.905 10.33 86.185z" class="cls-19" data-name="Tracé 539"/>
                    <path id="Tracé_540" d="M309.225 351.341l63.767 9.2-65.869 10.244z" class="cls-19" data-name="Tracé 540"/>
                    <path id="Tracé_541" d="M402.067 378.853l-5.227.18-27.442.93 12.533-97.741 14.948 71.729z" class="cls-19" data-name="Tracé 541"/>
                </g>
                <g id="Ordi">
                    <path id="Rectangle_189" d="M0 0h62.876v10.83H0z" class="cls-20" data-name="Rectangle 189" transform="translate(344.254 386.698)"/>
                    <path id="Tracé_542" d="M1007.18 606.7H806.853l45.319-135.42a9.322 9.322 0 0 1 8.892-6.368h183.949a6.938 6.938 0 0 1 6.579 9.134z" class="cls-21" data-name="Tracé 542" transform="translate(-410.037 -209.171)"/>
                    <circle id="Ellipse_83" cx="14.58" cy="14.58" r="14.58" class="cls-18" data-name="Ellipse 83" transform="translate(506.121 314.695)"/>
                    <path id="Tracé_543" d="M1008.68 520.389a17.5 17.5 0 0 1-2.117-.133 16.33 16.33 0 0 1-13.229-10.619 16.061 16.061 0 0 1-.867-3.727 17.3 17.3 0 0 1-.1-2.125A17.685 17.685 0 0 1 992.5 502a16.331 16.331 0 0 1 16.143-14.2 17.5 17.5 0 0 1 2.117.133 16.3 16.3 0 0 1 14.065 18.26 20.71 20.71 0 0 1-.3 1.656c-.094.383-.2.781-.312 1.149a15.882 15.882 0 0 1-1.649 3.61c-.156.258-.328.516-.5.781s-.359.492-.547.734a16.408 16.408 0 0 1-12.837 6.266z" class="cls-22" data-name="Tracé 543" transform="translate(-410.037 -209.171)"/>
                    <path id="Tracé_544" d="M1008.641 489.346a14.408 14.408 0 0 1 1.914.125 14.721 14.721 0 0 1 12.713 16.5 13.357 13.357 0 0 1-.273 1.5c-.078.352-.172.7-.281 1.039a14.517 14.517 0 0 1-1.469 3.282 11.697 11.697 0 0 1-.945 1.372 14.729 14.729 0 0 1-23.089.18 14.931 14.931 0 0 1-2.344-4.227 14.686 14.686 0 0 1-.781-3.368 15.685 15.685 0 0 1-.086-1.922 16.093 16.093 0 0 1 .125-1.617 14.729 14.729 0 0 1 14.588-12.838m0-3.125a17.893 17.893 0 0 0-17.69 15.557 18.575 18.575 0 0 0-.148 1.961 17.784 17.784 0 0 0 .109 2.344 18.151 18.151 0 0 0 .953 4.087 17.867 17.867 0 0 0 30.872 4.868c.211-.273.414-.547.6-.781a7.412 7.412 0 0 0 .555-.859 17.19 17.19 0 0 0 1.8-3.907c.125-.4.242-.781.344-1.25a17.584 17.584 0 0 0 .328-1.813 17.862 17.862 0 0 0-17.729-20.191z" class="cls-1" data-name="Tracé 544" transform="translate(-410.037 -209.171)"/>
                    <path id="Tracé_545" d="M1021.2 496.339a4.462 4.462 0 0 1-7.986-3.25 4.4 4.4 0 0 1 1.242-2.555 14.728 14.728 0 0 1 6.743 5.805z" class="cls-23" data-name="Tracé 545" transform="translate(-410.037 -209.171)"/>
                    <path id="Tracé_546" d="M1022.995 507.473a14.465 14.465 0 0 1-2.719 5.665 14.737 14.737 0 0 1-26.348-9.376l5.2-1.563 6.47 3.579 7.923 1.821 8.275-1.352z" class="cls-24" data-name="Tracé 546" transform="translate(-410.037 -209.171)"/>
                    <path id="Tracé_547" d="M1003.374 510.231l-8.6-1.117a14.686 14.686 0 0 1-.781-3.368l3.805-3.055z" class="cls-12" data-name="Tracé 547" transform="translate(-410.037 -209.171)"/>
                    <path id="Tracé_548" d="M587.782 293.5l1.164 6.97 4.391.57z" class="cls-25" data-name="Tracé 548"/>
                    <path id="Tracé_549" d="M1022.713 508.512a14.517 14.517 0 0 1-1.469 3.282 12.36 12.36 0 0 1-.445.7l-8.665-1.125 7.97-6.407z" class="cls-12" data-name="Tracé 549" transform="translate(-410.037 -209.171)"/>
                    <path id="Tracé_550" d="M1022.713 508.512a14.517 14.517 0 0 1-1.469 3.282l-1.141-6.837z" class="cls-25" data-name="Tracé 550" transform="translate(-410.037 -209.171)"/>
                    <path id="Tracé_551" d="M588.141 300.357l20.167 2.625-8.72-11.83z" class="cls-12" data-name="Tracé 551"/>
                    <path id="Tracé_552" d="M599.588 291.152l1.836 10.931 6.884.9z" class="cls-25" data-name="Tracé 552"/>
                </g>
                <g id="Avant_bras" data-name="Avant bras">
                    <path id="Tracé_553" d="M286.331 372.766l99.687-6.3 1.406 22.871H375.7l-29.926 8.189H264.18z" class="cls-14" data-name="Tracé 553"/>
                    <path id="Tracé_554" d="M386.018 366.468l21.112-27.481 10.337-3.149-17.917 53.5h-12.126z" class="cls-14" data-name="Tracé 554"/>
                    <path id="Tracé_555" d="M375.7 389.339l23.246-6.985 15.44-45.4 3.086-1.117-17.917 53.5z" class="cls-17" data-name="Tracé 555"/>
                </g>
                <path id="Tracé_556" d="M233.191 332.705l-14 64.822h137.283l19.222-5.415-.953-30.247-83.926 6.743 1.75-11.439z" class="cls-12" data-name="Tracé 556"/>
                <path id="Tracé_557" d="M335.042 176.776l52.383 32.341-19.4 40.256-56.211-54.782z" class="cls-23" data-name="Tracé 557"/>
                <path id="Tracé_558" d="M407.13 208.453l29.981 34.763 17.847-42.116-11.806-21.441z" class="cls-23" data-name="Tracé 558"/>
            </g>
        </g>
    </g>
</svg>
