<svg id="Calque_1" data-name="Calque 1" xmlns="http://www.w3.org/2000/svg" viewBox="0 0 1000 1000"><defs><style>.cls-1{fill:none;}.cls-2{fill:#3f99ff;}.cls-3{fill:#ffd0b5;}.cls-4{fill:#e6bba3;}.cls-5{fill:#fff;}.cls-6{fill:#cda691;}</style></defs><title>Hugo</title><rect class="cls-1" width="1000" height="1000"/><polygon class="cls-2" points="338.96 714.15 353.41 712.2 358.28 721.2 343.59 729.85 338.96 714.15"/><polygon class="cls-2" points="606.09 727.4 614 726.63 618.67 738.54 606.09 736.22 606.09 727.4"/><path d="M386,364.63s-36.46-112.44,7.54-182.44c20.43-32.51,83.85-37.93,137.19-43.88,61.53-6.86,125.57-11.38,147.41,7.51,69.94,60.49,7.28,209.5,7.28,209.5L486,402Z"/><path class="cls-3" d="M576.5,630.13v.58A192.43,192.43,0,0,0,584,684.79q1.46,5,3.17,9.68a103,103,0,0,0,24,38.38C658.85,780.46,706,792.63,706,792.63c-50.63,21.75-117.71,59.14-192.5,58.5-124.66-1.07-266.5-91.5-266.5-91.5,92.85-20.35,153.79-68.37,163.59-158.93,9-83.06-1.09-158.57-1.09-158.57l11.56-70.66s21.4-58.59,22.89-79.13c4.66-64.41,35.4-84.86,100.55-85.21,150-.82,153.49,58.77,148.39,95l-10.39,74s20.62,202.23-51.14,246.5a57.51,57.51,0,0,1-30.86,8.5,239.65,239.65,0,0,1-24-1.2l-.38,0"/><path class="cls-4" d="M587.14,694.47c-109.27-7.38-147-132.31-147.63-134.32.07.08.3.39.72.91,6.11,7.63,51,60.07,135.91,68.83l.36.82A192.43,192.43,0,0,0,584,684.79Q585.43,689.77,587.14,694.47Z"/><ellipse cx="539.78" cy="375.9" rx="9.05" ry="20.76"/><ellipse cx="631.36" cy="375.9" rx="9.05" ry="20.76"/><path class="cls-4" d="M585,365.79v97a16.84,16.84,0,0,0,17.32,16.9c7.67-.26,16.36-2.35,22.64-9.08C625,470.63,605,377.63,585,365.79Z"/><path d="M460,352.63l86.11-45.84a2.33,2.33,0,0,1,3.22,1.1l3.26,7.18a2.34,2.34,0,0,1-1.3,3.15Z"/><path d="M611.13,315.76v-6.15a2.32,2.32,0,0,1,3.46-2L682,345.63l-69.41-27.71A2.33,2.33,0,0,1,611.13,315.76Z"/><path class="cls-5" d="M621.77,502.27s-85.18,16-118.19-17c0,0,13.84,67.08,113.93,63.89Z"/><path class="cls-4" d="M621.77,502.27c17-3.2,25.56-7.46,25.56-7.46l-26.62,22.36Z"/><path class="cls-4" d="M408,345c-6.34-7.23-20.89-18.32-35.29-15.34S338,417.31,390,445s25.26-18.63,27.2-38.72S429.42,369.38,408,345Z"/><path class="cls-6" d="M374.26,358.07a8.84,8.84,0,0,1,13.27-5.46c5.9,3.71,12.31,9.28,12.9,16.17,1.13,13-9.86,38.39-4.05,55.36a44.81,44.81,0,0,1-24.07-33.83C370.49,378.19,372.31,366.25,374.26,358.07Z"/><path class="cls-2" d="M339,714.15s29.77,58.44,146,57.48c120-1,129-45,129-45s106,62,187,66c0,0-65,75-306,75s-324-100-324-100S285.54,747.47,339,714.15Z"/></svg>