<svg xmlns="http://www.w3.org/2000/svg" xmlns:xlink="http://www.w3.org/1999/xlink" viewBox="0 0 821.5 508.76"><defs><style>.cls-1,.cls-3{fill:none;}.cls-2{fill:#b0bf91;}.cls-3{stroke:#7ea52a;stroke-miterlimit:10;stroke-width:5px;}.cls-4{clip-path:url(#clip-path);}.cls-5{fill:#91bf30;}.cls-6{clip-path:url(#clip-path-2);}.cls-7{clip-path:url(#clip-path-3);}.cls-8{fill:#a2bf65;}.cls-9{fill:#c28362;}.cls-10{fill:#f7e4b2;}.cls-11{fill:#e69b74;}.cls-12{fill:#ffd0b5;}.cls-13{fill:#e6bba3;}.cls-14{fill:#fff;}.cls-15{fill:#cda691;}.cls-16{fill:#ffe0ce;}.cls-17{fill:gray;}.cls-18{fill:#ddcca0;}.cls-19{fill:#999;}.cls-20{fill:#b3b3b3;}.cls-21{fill:#59a7ff;}.cls-22{fill:#ffac81;}.cls-23{fill:#f7d06d;}.cls-24{fill:#ddc483;}</style><clipPath id="clip-path" transform="translate(-524.77 -267.7)"><path class="cls-1" d="M754.72,620.19c-26.27,26.27-57,38.11-68.69,26.44s.17-42.42,26.44-68.69,59.18-40.26,70.85-28.59S781,593.92,754.72,620.19Z"/></clipPath><clipPath id="clip-path-2" transform="translate(-524.77 -267.7)"><path class="cls-1" d="M555.68,641c17.71,17.7,38.44,25.68,46.3,17.82s-.12-28.59-17.82-46.3-39.89-27.14-47.75-19.27S538,623.28,555.68,641Z"/></clipPath><clipPath id="clip-path-3" transform="translate(-524.77 -267.7)"><path class="cls-1" d="M701.86,566.47c-17.84,42.18-44.61,71.15-59.81,64.73s-13-45.83,4.78-88,46.08-74.61,61.28-68.18S719.7,524.3,701.86,566.47Z"/></clipPath></defs><title>Juriste ordinateur</title><g id="Plante"><path class="cls-2" d="M637.89,685.18s2.45-9.49-6.66-12.5c0,0,.87-14.13-11-14.95s-14.52,16.11-14.52,16.11-14.64-2.59-12.81,11.34Z" transform="translate(-524.77 -267.7)"/><path class="cls-3" d="M687.67,645c-10.27,10.28-24.82,30.33-26,46.67" transform="translate(-524.77 -267.7)"/><g class="cls-4"><path class="cls-5" d="M754.72,620.19c-26.27,26.27-57,38.11-68.69,26.44s.17-42.42,26.44-68.69,59.18-40.26,70.85-28.59S781,593.92,754.72,620.19Z" transform="translate(-524.77 -267.7)"/><path class="cls-3" d="M795.83,536.83,686,646.63" transform="translate(-524.77 -267.7)"/><line class="cls-3" x1="235.25" y1="304.94" x2="275.07" y2="312.95"/><line class="cls-3" x1="211.24" y1="283.91" x2="228.55" y2="311.64"/><line class="cls-3" x1="183.19" y1="303.58" x2="212.37" y2="327.82"/><line class="cls-3" x1="243.06" y1="347.76" x2="197.94" y2="342.25"/><line class="cls-3" x1="215.65" y1="378.66" x2="184.81" y2="355.38"/><line class="cls-3" x1="167.18" y1="325.17" x2="191.1" y2="349.09"/><line class="cls-3" x1="148.73" y1="355.5" x2="177.5" y2="362.7"/></g><path class="cls-3" d="M600.87,657.71c6.93,6.92,16.74,20.44,17.54,31.45" transform="translate(-524.77 -267.7)"/><g class="cls-6"><path class="cls-5" d="M555.68,641c17.71,17.7,38.44,25.68,46.3,17.82s-.12-28.59-17.82-46.3-39.89-27.14-47.75-19.27S538,623.28,555.68,641Z" transform="translate(-524.77 -267.7)"/><path class="cls-3" d="M528,584.8l74,74" transform="translate(-524.77 -267.7)"/><line class="cls-3" x1="27.34" y1="341.24" x2="0.49" y2="346.64"/><line class="cls-3" x1="43.52" y1="327.06" x2="31.85" y2="345.76"/><line class="cls-3" x1="62.42" y1="340.32" x2="42.76" y2="356.66"/><line class="cls-3" x1="22.07" y1="370.1" x2="52.48" y2="366.38"/><line class="cls-3" x1="40.55" y1="390.93" x2="61.33" y2="375.23"/><line class="cls-3" x1="73.22" y1="354.88" x2="57.09" y2="371"/><line class="cls-3" x1="85.65" y1="375.31" x2="66.26" y2="380.17"/></g><path class="cls-3" d="M643.16,628.57c-7,16.49-15.14,45.78-11.23,64" transform="translate(-524.77 -267.7)"/><g class="cls-7"><path class="cls-5" d="M701.86,566.47c-17.84,42.18-44.61,71.15-59.81,64.73s-13-45.83,4.78-88,46.08-74.61,61.28-68.18S719.7,524.3,701.86,566.47Z" transform="translate(-524.77 -267.7)"/><path class="cls-3" d="M716.61,454.93,642.05,631.2" transform="translate(-524.77 -267.7)"/><line class="cls-3" x1="167.52" y1="244.71" x2="209.73" y2="222.47"/><line class="cls-3" x1="123.85" y1="242.9" x2="162.97" y2="255.48"/><line class="cls-3" x1="107.15" y1="282.02" x2="151.98" y2="281.44"/><line class="cls-3" x1="188.93" y1="295.28" x2="142.19" y2="304.6"/><line class="cls-3" x1="201.84" y1="274.1" x2="156.77" y2="269.87"/><line class="cls-3" x1="171.08" y1="334.53" x2="133.27" y2="325.68"/><line class="cls-3" x1="100.73" y1="311.17" x2="137.54" y2="315.59"/><line class="cls-3" x1="97.56" y1="344.84" x2="128.3" y2="337.43"/><line class="cls-3" x1="156.77" y1="203.1" x2="175.08" y2="226.83"/></g><path class="cls-8" d="M634.9,685.18s-3-11.77,8.26-15.51c0,0-1.07-17.53,13.6-18.55s18,20,18,20,18.17-3.21,15.9,14.07Z" transform="translate(-524.77 -267.7)"/><polygon class="cls-9" points="165.9 417.48 163.62 432.18 151.77 508.76 82.14 508.76 70.28 432.18 68 417.48 165.9 417.48"/></g><g id="Scribe"><path class="cls-10" d="M1179.7,692.19s-53.51,55.53-131.81,84.27h-15.27l0-23.66,6.69-.23-6.64-31.87.19-137.21,11-41.58,2-7.42s36.89-9.59,47.45-17.21c14.4,8.08,56.91,32.52,72.58,41.53a13.08,13.08,0,0,1,6.51,10.17C1174.19,589.27,1179.4,650.65,1179.7,692.19Z" transform="translate(-524.77 -267.7)"/><polygon class="cls-11" points="428.79 226.24 493.66 205.84 567.15 229.93 582.26 257.37 399.06 249.04 428.79 226.24"/><g id="Tete"><path class="cls-12" d="M1100.16,371c-.63.69-1.12,1.19-1.42,1.52,0,.18,0,.37-.06.55s0,.38,0,.57v0c-1.51,14.72-6.3,37-10.69,54.76a338.39,338.39,0,0,1-11.39,36.78,57.94,57.94,0,0,1-24.45-.17l-.36-.09h0v0h0c-.12.66-.25,1.33-.38,2-.33,1.7-.61,3.29-.8,4.84v0c-.11.87-.19,1.72-.22,2.56-.22,5,.9,9.83,5.31,16.48a32.53,32.53,0,0,0,6.36,6.74c9.84,8.2,25.36,15.24,31.28,19.64-14,13.35-29.43,14-47.45,17.21l-12.94,49-10.23-40.1c-27.09-.93-53.19-12.65-69.1-34.12,28.72-9.09,30.7-25.87,34.88-36.54,8.69-22.16,11.54-53.44,12.53-81h0c.13-3.38.24-6.79.34-10.25,0-1,.05-1.92.07-2.84h0c.06-2.95.08-5.74.06-8.42,0-.61,0-1.22,0-1.83,0-1.12,0-2.21,0-3.28,0-.09,0-.17,0-.25,0-.57,0-1.14,0-1.71,0-1.28-.07-2.54-.11-3.77,0-.89-.06-1.77-.08-2.63-.1-2.77-.2-5.39-.27-7.89,0-.14,0-.28,0-.42,0-.31,0-.63,0-.94-.08-2.94-.11-5.72,0-8.38,0-.76,0-1.51.08-2.26h0c0-.11,0-.22,0-.33.1-2.11.29-4.16.58-6.18,0-.34.11-.67.16-1s.09-.52.13-.79.11-.61.17-.92l.12-.6c.06-.25.11-.5.17-.75.29-1.3.64-2.6,1-3.91l.12-.38a49.69,49.69,0,0,1,2.85-6.95l.4-.79.63-1.19c.22-.39.44-.8.68-1.2.11-.18.23-.4.36-.64l.15-.25c.11-.17.22-.36.33-.55l.19-.31.39-.64c.15-.23.29-.47.45-.71.35-.56.75-1.16,1.19-1.79l.37-.54.39-.56c.32-.45.66-.91,1-1.39.11-.16.24-.31.36-.48l.67-.85.71-.88.74-.89.79-.89c.19-.22.38-.44.58-.65s.4-.44.61-.66c.41-.44.83-.87,1.27-1.31.65-.65,1.33-1.31,2.05-2s1.46-1.3,2.24-1.94c.38-.32.78-.63,1.19-.94l1-.75.07-.05q.32-.24.63-.45l.73-.52.55-.37c.52-.34,1-.68,1.6-1s.89-.53,1.36-.79l.3-.17c.2-.12.4-.23.61-.33a44.92,44.92,0,0,1,4.53-2.14l.65-.25.87-.34.77-.27.73-.24.9-.28.93-.27c28.06-7.79,65.22,11.56,71.84,43.18.07.39.15.77.22,1.16s.14.77.21,1.14C1116,352.58,1104.65,366.2,1100.16,371Z" transform="translate(-524.77 -267.7)"/><path class="cls-13" d="M1062,497.63c-6.32-1.38-13.72-3.75-14.12-3.91-53.67-20.31-42.55-73.1-42.55-73.1a86.67,86.67,0,0,0,10.61,19.09l0,0c7.43,10.15,19,21.24,35.77,25.2h0v0h0c-.12.66-.25,1.33-.38,2-.33,1.7-.61,3.29-.8,4.84v0c0,.32-.08.64-.11.95l-.06.68c0,.31,0,.62-.05.93-.22,5,.9,9.83,5.31,16.48A32.53,32.53,0,0,0,1062,497.63Z" transform="translate(-524.77 -267.7)"/><path d="M1112.48,330.28c-29.55-.72-50.67-14.18-68.57-17.34s-24.64,26.54-27.33,39.62-15.14,17.67-15.14,17.67c-.16-27.26-3.6-40.84,6.51-58.36,2.26-3.92,12.43-21.56,32.26-27.07,28.06-7.79,65.23,11.56,71.85,43.18C1112.22,328.75,1112.36,329.52,1112.48,330.28Z" transform="translate(-524.77 -267.7)"/><path d="M1008,296.25s-19.84,27.46-4.1,63.23a4.39,4.39,0,0,0,8.06-.07C1017.25,346.53,1024.34,320.42,1008,296.25Z" transform="translate(-524.77 -267.7)"/><path d="M1051.74,268.26s-32.81,8.4-43.61,46a4.38,4.38,0,0,0,6.23,5.11C1026.71,312.85,1048.87,297.31,1051.74,268.26Z" transform="translate(-524.77 -267.7)"/><path class="cls-13" d="M1018,346.42c-1.69-4-6.36-10.92-13-11.71s-27.63,32.78-9.22,52.23,13.58-4.39,17.32-12.77S1023.75,360,1018,346.42Z" transform="translate(-524.77 -267.7)"/><path d="M1068.72,349.31a3.84,3.84,0,0,0-.07-.47l-.1-.55c-.08-.37-.17-.74-.26-1.11-.19-.73-.42-1.47-.67-2.18a17.7,17.7,0,0,0-1.94-3.95,8.35,8.35,0,0,0-2.83-2.73,5.57,5.57,0,0,0-3.74-.61,16.26,16.26,0,0,0-4.46,1.49,36.54,36.54,0,0,0-4.35,2.49,65.17,65.17,0,0,0-8.07,6.36,65.33,65.33,0,0,1,6.93-7.79,38.93,38.93,0,0,1,4.08-3.43,20,20,0,0,1,5-2.68,11.22,11.22,0,0,1,3.1-.58,10,10,0,0,1,3.27.49,13.23,13.23,0,0,1,5.31,3.43,23.16,23.16,0,0,1,3.55,4.75c.48.84.92,1.7,1.32,2.57.21.44.4.88.58,1.33l.27.69c.09.25.17.44.27.77l1.08,3.52-8.18,1.95Z" transform="translate(-524.77 -267.7)"/><path d="M1080.92,349.08c.27-.38.49-.64.74-.95l.73-.87c.5-.56,1-1.12,1.53-1.66a30.86,30.86,0,0,1,3.45-3.06,14.9,14.9,0,0,1,4.36-2.36,7.65,7.65,0,0,1,2.78-.38,7.08,7.08,0,0,1,1.46.25l.64.23.61.28a8.56,8.56,0,0,1,2.06,1.51,12.13,12.13,0,0,1,1.49,1.84,18.52,18.52,0,0,1,1.88,4,34.19,34.19,0,0,1,1.61,8.27,33.47,33.47,0,0,0-3.17-7.55,16.44,16.44,0,0,0-2.34-3.11,9.56,9.56,0,0,0-1.39-1.13,5.33,5.33,0,0,0-1.46-.64l-.36-.08-.36,0a2.82,2.82,0,0,0-.59.05,4.13,4.13,0,0,0-1.24.51,11,11,0,0,0-2.48,2.22,24.9,24.9,0,0,0-2.18,3q-.51.81-1,1.65l-.44.83c-.14.27-.3.58-.38.79l-1.32,3.29-6.74-4.05Z" transform="translate(-524.77 -267.7)"/><path class="cls-13" d="M1084.2,408s-7,10.05-14.36,8.76a7.47,7.47,0,0,1-4-2.1l-.54-.62a8.44,8.44,0,0,1-1.7-4.41c-1.38-12,6-29.82,13.66-51.82C1077.23,357.8,1067,398.56,1084.2,408Z" transform="translate(-524.77 -267.7)"/><ellipse cx="1058.95" cy="363.24" rx="7.79" ry="4.45" transform="translate(-169.43 966.31) rotate(-69.99)"/><ellipse cx="1089.26" cy="368.59" rx="7.79" ry="4.45" transform="translate(-154.51 998.31) rotate(-69.99)"/><path class="cls-14" d="M1074.13,429.79,1071.78,441s-7.67,5.05-24.13-2-11-29.65-11-29.65c-.75,12.74,12.58,18,24.75,19.93A49,49,0,0,0,1074.13,429.79Z" transform="translate(-524.77 -267.7)"/><path class="cls-15" d="M1001.61,347.19a4,4,0,0,1,6.51-.43c2,2.45,4,5.77,3.22,8.83-1.4,5.78-9.79,15.13-9.74,23.28a20.37,20.37,0,0,1-5.49-18.06A39.54,39.54,0,0,1,1001.61,347.19Z" transform="translate(-524.77 -267.7)"/><path class="cls-13" d="M1074.14,429.75c3-.21,7.58-2.43,7.58-2.43l-8.25,5.64Z" transform="translate(-524.77 -267.7)"/><path class="cls-16" d="M1084.2,408c-17.17-9.43-7-50.19-7-50.19S1073.75,398,1084.2,408Z" transform="translate(-524.77 -267.7)"/><path d="M1046.38,281.76s29.09-23.8,59.94-9.47,42.31,39.45,40.11,64.35c0,0-34.87,4.36-92.69-21.18Z" transform="translate(-524.77 -267.7)"/></g><path class="cls-10" d="M1013.57,628.89,997.53,754l35.12-1.19,0,23.66-105-.09-13.22-110.3-15.17,58.75-18.63-38-49.5,12.08h0q-4-2.62-7.86-5.39l38.94-137.39a13.09,13.09,0,0,1,7-8.27c16-7.56,63.53-29.9,84.41-38.58.18.24.36.49.56.73,12.4,15.18,66.48,25.34,66.48,25.34l2.06,8,10.23,40.1-.19,137.21Z" transform="translate(-524.77 -267.7)"/><g id="Buste"><path class="cls-10" d="M899.21,724.81l-7.92,51.52v0l0,.1h-77.4l17.2-77.57h0l49.5-12.08Z" transform="translate(-524.77 -267.7)"/><polygon class="cls-17" points="389.61 398.36 402.83 508.66 366.52 508.63 353.84 508.62 374.44 457.11 389.61 398.36"/><polygon class="cls-17" points="507.93 452.99 507.88 485.09 472.76 486.28 488.8 361.19 507.93 452.99"/><polygon class="cls-18" points="402.84 508.76 366.52 508.66 353.84 508.62 374.44 457.11 389.61 398.36 402.83 508.66 402.84 508.76"/><polygon class="cls-18" points="395.75 449.65 477.36 461.43 393.06 474.54 395.75 449.65"/><polygon class="cls-18" points="514.57 484.86 507.88 485.09 472.76 486.28 488.8 361.19 507.93 452.99 514.57 484.86"/></g><g id="Ordi"><rect class="cls-19" x="440.58" y="494.9" width="80.47" height="13.86"/><path class="cls-20" d="M1289,776.46H1032.62l58-173.31A11.93,11.93,0,0,1,1102,595h235.42a8.88,8.88,0,0,1,8.42,11.69Z" transform="translate(-524.77 -267.7)"/><circle class="cls-17" cx="666.4" cy="421.41" r="18.66"/><path class="cls-21" d="M1290.92,666a22.41,22.41,0,0,1-2.71-.17,20.9,20.9,0,0,1-16.93-13.59,20.55,20.55,0,0,1-1.11-4.77,22.13,22.13,0,0,1-.13-2.72,22.67,22.67,0,0,1,.17-2.29,20.9,20.9,0,0,1,20.66-18.17,22.41,22.41,0,0,1,2.71.17,21,21,0,0,1,5.52,1.51,20.87,20.87,0,0,1,12.48,21.86c-.1.72-.23,1.43-.39,2.12-.12.49-.25,1-.4,1.47a20.33,20.33,0,0,1-2.11,4.62c-.2.33-.42.66-.64,1s-.46.63-.7.94A21,21,0,0,1,1290.92,666Z" transform="translate(-524.77 -267.7)"/><path class="cls-14" d="M1290.87,626.27a18.44,18.44,0,0,1,2.45.16,18.84,18.84,0,0,1,16.27,21.12,17.11,17.11,0,0,1-.35,1.92c-.1.45-.22.89-.36,1.33A18.57,18.57,0,0,1,1307,655c-.18.31-.37.6-.57.89s-.42.58-.64.86a18.85,18.85,0,0,1-29.55.23,19.11,19.11,0,0,1-3-5.41,18.8,18.8,0,0,1-1-4.31,20.07,20.07,0,0,1-.11-2.46,20.6,20.6,0,0,1,.16-2.07,18.85,18.85,0,0,1,18.67-16.43m0-4v0h0a22.9,22.9,0,0,0-22.64,19.91,23.75,23.75,0,0,0-.19,2.51,22.78,22.78,0,0,0,.14,3,23.23,23.23,0,0,0,1.22,5.23A22.87,22.87,0,0,0,1288,667.79a22.67,22.67,0,0,0,3,.19,23,23,0,0,0,18-8.8c.27-.35.53-.7.77-1s.49-.72.71-1.1a22,22,0,0,0,2.3-5c.16-.51.31-1,.44-1.6a22.53,22.53,0,0,0,.42-2.32,23,23,0,0,0-3.22-15,22.85,22.85,0,0,0-19.47-10.84Z" transform="translate(-524.77 -267.7)"/><path class="cls-22" d="M1306.94,635.22a5.71,5.71,0,0,1-10.22-4.16,5.63,5.63,0,0,1,1.59-3.27A18.85,18.85,0,0,1,1306.94,635.22Z" transform="translate(-524.77 -267.7)"/><path class="cls-23" d="M1309.24,649.47a18.51,18.51,0,0,1-3.48,7.25,18.86,18.86,0,0,1-33.72-12l6.66-2,8.28,4.58,10.14,2.33,10.59-1.73Z" transform="translate(-524.77 -267.7)"/><path class="cls-10" d="M1284.13,653l-11-1.43a18.8,18.8,0,0,1-1-4.31l4.87-3.91Z" transform="translate(-524.77 -267.7)"/><polygon class="cls-24" points="752.25 375.62 753.74 384.54 759.36 385.27 752.25 375.62"/><path class="cls-10" d="M1308.88,650.8A18.57,18.57,0,0,1,1307,655c-.18.31-.37.6-.57.89l-11.09-1.44,10.2-8.2Z" transform="translate(-524.77 -267.7)"/><path class="cls-24" d="M1308.88,650.8A18.57,18.57,0,0,1,1307,655l-1.46-8.75Z" transform="translate(-524.77 -267.7)"/><polygon class="cls-10" points="752.71 384.4 778.52 387.76 767.36 372.62 752.71 384.4"/><polygon class="cls-24" points="767.36 372.62 769.71 386.61 778.52 387.76 767.36 372.62"/></g><g id="Avant_bras" data-name="Avant bras"><polygon class="cls-12" points="366.45 477.07 494.03 469.01 495.83 498.28 480.82 498.28 442.52 508.76 338.1 508.76 366.45 477.07"/><polygon class="cls-12" points="494.03 469.01 521.05 433.84 534.28 429.81 511.35 498.28 495.83 498.28 494.03 469.01"/><polygon class="cls-16" points="480.82 498.28 510.57 489.34 530.33 431.24 534.28 429.81 511.35 498.28 480.82 498.28"/></g><polygon class="cls-10" points="298.44 425.8 280.52 508.76 456.22 508.76 480.82 501.83 479.6 463.12 372.19 471.75 374.43 457.11 298.44 425.8"/><polygon class="cls-22" points="428.79 226.24 495.83 267.63 471 319.15 399.06 249.04 428.79 226.24"/><polygon class="cls-22" points="521.05 266.78 559.42 311.27 582.26 257.37 567.15 229.93 521.05 266.78"/></g></svg>