<svg xmlns="http://www.w3.org/2000/svg" viewBox="0 0 978.01 478.44"><defs><style>.cls-1{fill:#f7e4b2;}.cls-2{fill:#e68755;}.cls-3{fill:#f7e5b7;}.cls-4{fill:#ffbe55;}.cls-5{fill:gray;}.cls-6{fill:#b36942;}.cls-7{fill:#ddcca0;}.cls-8{fill:#ccc;}.cls-9{fill:#b3b3b3;}.cls-10{fill:#c28464;}.cls-11{fill:#ffd0b5;}.cls-12{fill:#e6bba3;}.cls-13{fill:none;}.cls-14{fill:#ffe0ce;}.cls-15{fill:#fff;}.cls-16{fill:#ffac81;}.cls-17{fill:#ffbd9b;}.cls-18{fill:#cd8a67;}.cls-19{fill:#59a7ff;}.cls-20{fill:#666;}</style></defs><title>Juriste construction</title><g id="Chantier"><path class="cls-1" d="M44.52,778.39C80.46,711,126.62,647.13,180.05,596.9a15.11,15.11,0,0,1,22,1.44c47.92,58.51,107.26,180,107.26,180Z" transform="translate(-44.52 -299.95)"/><path class="cls-1" d="M848.34,778.39c23.64-44.32,54-86.34,89.15-119.38A9.94,9.94,0,0,1,952,660c31.52,38.49,70.55,118.43,70.55,118.43Z" transform="translate(-44.52 -299.95)"/><rect class="cls-2" x="312.59" y="234.3" width="30.27" height="244.14"/><rect class="cls-2" x="784.48" y="234.3" width="30.27" height="244.14"/><rect class="cls-2" x="258.03" y="294.4" width="606.72" height="79.03"/><polygon class="cls-3" points="336.81 294.4 258.03 373.18 258.03 344.89 308.53 294.4 336.81 294.4"/><polygon class="cls-3" points="417.47 294.4 338.43 373.44 310.15 373.44 389.18 294.4 417.47 294.4"/><polygon class="cls-3" points="498.12 294.4 419.08 373.44 390.8 373.44 469.84 294.4 498.12 294.4"/><polygon class="cls-3" points="578.77 294.4 499.74 373.44 471.46 373.44 550.49 294.4 578.77 294.4"/><polygon class="cls-3" points="659.43 294.4 580.39 373.44 552.11 373.44 631.15 294.4 659.43 294.4"/><polygon class="cls-3" points="740.09 294.4 661.05 373.44 632.77 373.44 711.8 294.4 740.09 294.4"/><polygon class="cls-3" points="820.74 294.4 741.7 373.44 713.42 373.44 792.46 294.4 820.74 294.4"/><polygon class="cls-3" points="864.75 302.76 864.75 331.05 822.36 373.44 794.08 373.44 864.75 302.76"/><polyline class="cls-2" points="345.48 478.44 864.75 478.44 864.75 434.74 258.03 434.74 258.03 478.44 342.86 478.44 345.48 478.44"/><polygon class="cls-3" points="336.81 434.74 312.59 458.96 293.1 478.44 264.82 478.44 308.53 434.74 336.81 434.74"/><polygon class="cls-3" points="417.47 434.74 373.76 478.44 345.48 478.44 389.18 434.74 417.47 434.74"/><polygon class="cls-3" points="498.12 434.74 454.41 478.44 426.13 478.44 469.84 434.74 498.12 434.74"/><polygon class="cls-3" points="578.77 434.74 535.07 478.44 506.79 478.44 550.49 434.74 578.77 434.74"/><polygon class="cls-3" points="659.43 434.74 615.72 478.44 587.44 478.44 631.15 434.74 659.43 434.74"/><polygon class="cls-3" points="740.09 434.74 696.38 478.44 668.1 478.44 711.8 434.74 740.09 434.74"/><polygon class="cls-3" points="820.74 434.74 784.48 471 777.03 478.44 748.75 478.44 784.48 442.72 792.46 434.74 820.74 434.74"/><polygon class="cls-3" points="864.75 443.1 864.75 471.38 857.69 478.44 829.41 478.44 864.75 443.1"/><circle class="cls-4" cx="327.73" cy="234.3" r="33.2"/><circle class="cls-3" cx="327.73" cy="234.3" r="16.6"/><circle class="cls-4" cx="799.61" cy="234.3" r="33.2"/><circle class="cls-3" cx="799.61" cy="234.3" r="16.6"/><rect class="cls-5" x="312.59" y="373.43" width="30.27" height="7.03"/><rect class="cls-6" x="783.83" y="373.43" width="30.27" height="7.03"/><path class="cls-7" d="M190.77,682.67s-12.13-.46-22.5-5.37c10.54,3.8,25.95,3,25.95,3Z" transform="translate(-44.52 -299.95)"/><path class="cls-8" d="M234.58,657.76l-6.87,22.87c-11.29,2.32-25.3,3.39-36.94,2a18.15,18.15,0,0,1,.08-7.3L196.71,648a3.9,3.9,0,0,1,4.78-2.95l8.18,2.1,5.06,1.3,3.85,1,5.06,1.3,8.18,2.1A3.88,3.88,0,0,1,234.58,657.76Z" transform="translate(-44.52 -299.95)"/><polygon class="cls-9" points="179.12 350.82 165.95 373.09 165.15 347.24 179.12 350.82"/><path class="cls-10" d="M230.38,532.32h0a2,2,0,0,1,2,2V658.84a0,0,0,0,1,0,0h-4a0,0,0,0,1,0,0V534.31A2,2,0,0,1,230.38,532.32Z" transform="translate(110.93 -338.54) rotate(14.41)"/></g><g id="Scribe"><path d="M498.55,385.5s-41.93-8.39-43.89,36.29L447,392.4l5.07-13.06,45.37-.86Z" transform="translate(-44.52 -299.95)"/><path class="cls-11" d="M560.69,586.39l-51.9,78.89L461,586.38c7.67-2.41,12.83-8.2,16.32-15.79a70.92,70.92,0,0,0,5-17.09c2.42-13.67,2.44-28.92,2.72-40.56,0-.19,0-.38,0-.56l0-1.08L504,516.05l4.79,1.21.64-.15,24.78-5.81c0,.43-.05.87-.07,1.31a163.57,163.57,0,0,0,1.33,30.21C538.34,563.21,545.67,582.79,560.69,586.39Z" transform="translate(-44.52 -299.95)"/><path class="cls-12" d="M535.47,542.82c-7.87,11.59-33.1,30.61-58.15,27.77a70.92,70.92,0,0,0,5-17.09c2.42-13.67,2.44-28.92,2.72-40.56,0-.19,0-.38,0-.56L504,516.05l5.43,1.06.77.15,23.94-4.65A163.57,163.57,0,0,0,535.47,542.82Z" transform="translate(-44.52 -299.95)"/><path d="M577.48,366.81s-25.93,21.8-19.36,60.33A4.38,4.38,0,0,0,566,429C574.27,417.84,587.49,394.24,577.48,366.81Z" transform="translate(-44.52 -299.95)"/><path class="cls-12" d="M453.23,407.92c-2-3.39-6.56-8.69-10.59-7.65s-7.13,38.76,8.63,52.33,6.63-7.86,6.55-16.87S460.14,419.36,453.23,407.92Z" transform="translate(-44.52 -299.95)"/><path class="cls-12" d="M564.34,407.92c2-3.39,6.56-8.69,10.59-7.65s7.14,38.76-8.62,52.33-6.64-7.86-6.55-16.87S557.43,419.36,564.34,407.92Z" transform="translate(-44.52 -299.95)"/><path class="cls-11" d="M561.29,436.91c0,20.49-1.65,67.77-1.65,67.77-10.16,28.6-39.65,38.94-50.85,38.94s-39.38-10-49.56-38.13c0,0-2.94-47.77-2.94-68.58-3.09-64.68-4-98.92,52.5-98.92S567.16,372.6,561.29,436.91Z" transform="translate(-44.52 -299.95)"/><line class="cls-13" x1="465.28" y1="154.76" x2="465.27" y2="154.76"/><path class="cls-12" d="M513.27,478.53c-7.95,15.3-18.15-1.53-18.15-1.53,10.8-2.55,13.45-46.12,13.65-49.75,0-.16,0-.24,0-.24S513.27,461.61,513.27,478.53Z" transform="translate(-44.52 -299.95)"/><path class="cls-14" d="M508.77,427.25c-.2,3.63-2.85,47.2-13.65,49.75C505.19,464.91,508.48,430.45,508.77,427.25Z" transform="translate(-44.52 -299.95)"/><path class="cls-8" d="M508.77,427.25c0-.16,0-.24,0-.24" transform="translate(-44.52 -299.95)"/><path class="cls-15" d="M480.28,491.06s36.59,15.2,55.58-1.29c0,0,.43,21.53-28.07,21.53C486.2,511.3,480.28,491.06,480.28,491.06Z" transform="translate(-44.52 -299.95)"/><ellipse cx="448.04" cy="129.39" rx="4.45" ry="7.79"/><ellipse cx="482.24" cy="129.39" rx="4.45" ry="1.11"/><path d="M466.26,414.42a39.52,39.52,0,0,1,4-12.06,22.44,22.44,0,0,1,4.07-5.46,14.63,14.63,0,0,1,6.55-3.73,15.78,15.78,0,0,1,7.86.31,25.07,25.07,0,0,1,6.73,3.1,34.07,34.07,0,0,1,5.6,4.55,29.92,29.92,0,0,1,4.61,5.9l-10,4.89a22.62,22.62,0,0,0-5.52-8.41c-2.46-2.41-5.45-4.15-8.3-4.11a9.82,9.82,0,0,0-4.63,1.29,18.13,18.13,0,0,0-4.38,3.52A37.74,37.74,0,0,0,466.26,414.42Z" transform="translate(-44.52 -299.95)"/><path d="M551.31,414.42q-8.59,1.53-17.12,3.22c-2.84.57-5.68,1.14-8.47,1.77-1.4.31-2.8.62-4.14,1a30.22,30.22,0,0,0-3.67,1.11l-2-10.95a42.07,42.07,0,0,1,4.89.13c1.52.1,3,.25,4.46.4,2.94.29,5.85.65,8.75,1Q542.67,413.17,551.31,414.42Z" transform="translate(-44.52 -299.95)"/><path d="M529.76,364.61s-2,3.18-8.61,7c-17.15,10-52.1,36.29-90.69,36.29,0,0-10.43-31.3,25.15-43.31Z" transform="translate(-44.52 -299.95)"/><path d="M521.15,371.63s40.14-6.49,42.11,38.19l9.43-31.29-5.07-13.06-45.37-.86Z" transform="translate(-44.52 -299.95)"/><path class="cls-16" d="M567.62,358.78v3.74H450v-3.74a58.77,58.77,0,0,1,47.46-57.72,58.84,58.84,0,0,1,70.21,57.72Z" transform="translate(-44.52 -299.95)"/><path class="cls-17" d="M481.4,333.6c-13.35-3.6-25,9.23-31,17.71a58.85,58.85,0,0,1,47-50.25v22.11S497.71,338,481.4,333.6Z" transform="translate(-44.52 -299.95)"/><path class="cls-17" d="M536.18,333.6c13.35-3.6,25,9.23,31,17.71a58.85,58.85,0,0,0-47-50.25v22.11S519.87,338,536.18,333.6Z" transform="translate(-44.52 -299.95)"/><rect class="cls-18" x="401.54" y="58.27" width="125.46" height="8.59" rx="3.01"/><path class="cls-19" d="M475.13,609.7c28.59,12.55,69.64.88,69.64.88l-36,54.7Z" transform="translate(-44.52 -299.95)"/><path class="cls-11" d="M686.9,778.34H619.68c25.3-.39,52.64-9.8,64.73-14.48Z" transform="translate(-44.52 -299.95)"/><path class="cls-19" d="M690.77,761.27s-37.36,16.55-71.09,17.07H359.89l-27.06-14.48-6-2.59L350.7,635.9S430.39,595,461,586.38l47.79,78.9,51.9-78.89c47.37,13.5,71.43,33.83,106.19,49.51Z" transform="translate(-44.52 -299.95)"/><path class="cls-16" d="M638.21,621.19c-5.63,18.59-15.92,59.41-20.05,120.08q-.66,9.66-1.09,20c-.23,5.54-.41,11.24-.53,17.07H401q-.18-8.75-.52-17.07-.43-10.34-1.1-20c-4.1-60.29-14.28-101-19.94-119.72,10.27-5,22.26-10.74,34.14-16.16,6.25-2.85,12.46-5.61,18.39-8.14h0c11.31-4.82,21.58-8.79,29-10.87l47.79,78.9,51.9-78.89a263.13,263.13,0,0,1,25.73,8.76c6.53,2.61,12.6,5.34,18.38,8.14C616.76,609.1,627.44,615.23,638.21,621.19Z" transform="translate(-44.52 -299.95)"/><path class="cls-18" d="M638.21,621.19c-5.63,18.59-15.92,59.41-20.05,120.08q-.66,9.66-1.09,20c-.23,5.54-.41,11.24-.53,17.07H611.7v-1.61c.1-4.52.23-12.06.37-15.67.28-6.66.64-13.44,1.1-20.13,3.89-57.12,13.19-96.83,19.11-117.31l-2.18-1.22c-8.73-4.86-17.75-9.88-27.48-14.61-6.19-3-12.1-5.62-18.06-8-7.11-2.84-14.25-5.33-21.72-7.56L513,668l-4.35,6.61-4.11-6.77-45.78-75.58c-6.28,2-14.58,5.23-24.75,9.56l-.94.4h0c-5.27,2.26-11.1,4.85-17.34,7.69-9.26,4.23-19.41,9-30.22,14.26,5.88,20.49,15.08,60,18.94,116.73.45,6.57.82,13.35,1.11,20.13.16,3.92,0,13,.14,17.28H401q-.18-8.75-.52-17.07-.43-10.34-1.1-20c-4.1-60.29-14.28-101-19.94-119.72,10.27-5,22.26-10.74,34.14-16.16,6.25-2.85,12.46-5.61,18.39-8.14h0c11.31-4.82,21.58-8.79,29-10.87l47.79,78.9,51.9-78.89a263.13,263.13,0,0,1,25.73,8.76c6.53,2.61,12.6,5.34,18.38,8.14C616.76,609.1,627.44,615.23,638.21,621.19Z" transform="translate(-44.52 -299.95)"/><path class="cls-18" d="M604.8,603.29c-12.42,30.86-31.32,83.11-41.83,138-1.27,6.64-2.42,13.32-3.42,20q-1.27,8.54-2.2,17.07H537.21q.87-8.54,2.09-17.07c.94-6.69,2-13.37,3.25-20,10.68-58.58,30.77-113.87,43.87-146.12C593,597.76,599,600.49,604.8,603.29Z" transform="translate(-44.52 -299.95)"/><path class="cls-18" d="M480.37,778.34H460.23q-.92-8.52-2.2-17.07c-1-6.68-2.15-13.36-3.42-20-10.27-53.65-28.57-104.78-41-135.88,6.25-2.85,12.46-5.61,18.39-8.14h0c13.09,32.51,32.56,86.69,43,144,1.22,6.63,2.31,13.31,3.25,20Q479.5,769.79,480.37,778.34Z" transform="translate(-44.52 -299.95)"/><path class="cls-18" d="M400.52,761.27H617.07q.42-10.34,1.09-20H399.42" transform="translate(-44.52 -299.95)"/><line class="cls-20" x1="361.1" y1="478.39" x2="361.1" y2="476.02"/><path class="cls-11" d="M330.34,778.34h67.22c-25.3-.39-52.64-9.8-64.73-14.48Z" transform="translate(-44.52 -299.95)"/></g></svg>