<svg id="Calque_1" data-name="Calque 1" xmlns="http://www.w3.org/2000/svg" viewBox="0 0 1000 1000"><defs><style>.cls-1,.cls-6{fill:none;}.cls-2{fill:#ffd0b5;}.cls-3{fill:#e6bba3;}.cls-4{fill:#cda691;}.cls-5{fill:#fff;}.cls-6{stroke:#4d4d4d;stroke-miterlimit:10;stroke-width:5px;}.cls-7{fill:#ffbd9b;}</style></defs><title>Mel</title><path d="M673.71,353.48c57.65-37.84,87.73-135.57,80-202.66A23.68,23.68,0,0,0,729.89,130c-25.75.32-71.69,1.44-108.93,5.36a213.18,213.18,0,0,1-72.2-4.85c-39.08-9.41-104.18-15.87-155.38,24.72-137.95,109.38,21.74,370.53,21.74,370.53Z"/><rect class="cls-1" width="1000" height="1000"/><path class="cls-2" d="M685.21,808.4c-177,83.91-354.14-7.14-354.14-7.14,74.48-20.17,82.64-108.69,82.64-186.24s7.18-283.15,7.18-283.15V289.76a35.1,35.1,0,0,1,35.1-35.1h195.3a30.2,30.2,0,0,1,30,33.68l-9.42,80.93c8.48,63.38-2.06,175.07-10.49,235.26a32.54,32.54,0,0,1-27.79,27.73c-10.24,1.41-19.89,2.51-29,3.31-2.41,14.51-2.64,40.4-1.37,53.57C613.2,792.52,685.21,808.4,685.21,808.4Z"/><path class="cls-3" d="M603.21,669.14C509.35,654.12,451.08,603,451.08,603c49.42,23.77,95,37.06,153.5,32.55C602.17,650.08,601.89,656,603.21,669.14Z"/><path class="cls-3" d="M418.21,328.66c-7.17-8.17-23.61-20.71-39.9-17.34s-39.25,99.13,19.52,130.44S426.39,420.7,428.59,398,442.43,356.26,418.21,328.66Z"/><path class="cls-4" d="M380.07,343.48a10,10,0,0,1,15-6.17c6.67,4.19,13.91,10.48,14.58,18.28,1.27,14.73-11.15,43.41-4.58,62.59a50.66,50.66,0,0,1-27.21-38.25C375.81,366.22,377.85,352.73,380.07,343.48Z"/><ellipse cx="535.67" cy="369.27" rx="9.73" ry="20.76"/><ellipse cx="636.89" cy="367.55" rx="9.73" ry="20.76"/><path class="cls-3" d="M583,368.83V496.45s28.76.52,43.14-18Z"/><path class="cls-5" d="M630.4,530.07c-97,8.69-138-17.92-138-17.92S495.19,567,627.09,567Z"/><path class="cls-3" d="M630.4,530.07c11.26-.89,24.91-6,24.91-6l-25.85,17.13Z"/><path d="M459.48,337.83s42.75-45.56,99.89-52.77l4.73,26.29C526,307.25,459.48,337.83,459.48,337.83Z"/><path d="M671.87,325.89s-28.45-33.76-58.67-37.18l1.41,20.61C633.45,304.68,671.87,325.89,671.87,325.89Z"/><ellipse class="cls-6" cx="530.67" cy="368.83" rx="44.89" ry="43.5"/><ellipse class="cls-6" cx="638.89" cy="369.27" rx="40.31" ry="43.5"/><line class="cls-6" x1="575.57" y1="368.83" x2="598.58" y2="369.27"/><path class="cls-7" d="M373.35,762.52s114.88,44.31,265.54,8.12c0,0,91.72,48.45,167.48,64.38,0,0-144.6,54.15-292.55,54.15s-292.54-66.29-292.54-66.29S354.64,774.33,373.35,762.52Z"/></svg>