<svg id="Calque_1" data-name="Calque 1" xmlns="http://www.w3.org/2000/svg" viewBox="0 0 970.82 835.78"><defs><style>.cls-1{fill:#fff;}.cls-2{fill:#e6e6e6;}.cls-3{fill:#ccc;}.cls-4{fill:#f2f2f2;}.cls-5{fill:#999;}</style></defs><title>Pop-up-mobile</title><rect class="cls-1" width="970.82" height="778.82" rx="29.73"/><path class="cls-2" d="M1072.62,721.52h-672a10,10,0,0,1-10-10v-440h692v440A10,10,0,0,1,1072.62,721.52Z" transform="translate(-251.21 -82.11)"/><path class="cls-3" d="M149.41,139.41h672a10,10,0,0,1,10,10v40a0,0,0,0,1,0,0h-692a0,0,0,0,1,0,0v-40A10,10,0,0,1,149.41,139.41Z"/><circle class="cls-4" cx="786.91" cy="164.91" r="12.5"/><circle class="cls-4" cx="786.91" cy="164.91" r="12.5"/><circle class="cls-4" cx="739.91" cy="164.91" r="12.5"/><circle class="cls-4" cx="739.91" cy="164.91" r="12.5"/><rect class="cls-4" x="189.41" y="265.79" width="271" height="297.24" rx="9.22"/><rect class="cls-4" x="510.41" y="265.79" width="271" height="297.24" rx="9.22"/><rect class="cls-3" x="206.73" y="285.79" width="236.36" height="20.27" rx="2"/><rect class="cls-3" x="206.73" y="317.88" width="236.36" height="20.27"/><rect class="cls-3" x="206.73" y="349.98" width="236.36" height="20.27" rx="2"/><rect class="cls-3" x="206.73" y="382.08" width="236.36" height="20.27" rx="2"/><rect class="cls-3" x="206.73" y="414.18" width="162.47" height="20.27" rx="2"/><rect class="cls-3" x="527.73" y="285.79" width="236.36" height="20.27" rx="2"/><rect class="cls-3" x="527.73" y="317.88" width="236.36" height="20.27"/><rect class="cls-3" x="527.73" y="349.98" width="116.27" height="20.27" rx="1.4"/><rect class="cls-5" x="659.95" y="349.98" width="104.15" height="20.27" rx="1.33"/><rect class="cls-5" x="527.73" y="382.07" width="236.36" height="20.27" rx="2"/><rect class="cls-3" x="527.73" y="414.15" width="236.36" height="20.27" rx="2"/><rect class="cls-3" x="527.73" y="446.25" width="162.47" height="20.27" rx="2"/><rect class="cls-5" x="664" y="581.49" width="117.41" height="40" rx="10"/><polygon class="cls-1" points="876.89 778.82 944.2 778.82 910.54 835.78 876.89 778.82"/></svg>