<svg id="Calque_1" data-name="Calque 1" xmlns="http://www.w3.org/2000/svg" viewBox="0 0 1000 1000"><defs><style>.cls-1{fill:none;}.cls-2{fill:#e69b74;}.cls-3{fill:#666;}.cls-4{fill:#ffd0b5;}.cls-5{fill:#f7e5b7;}.cls-6{fill:#e6bba3;}.cls-7{fill:#fff;}.cls-8{fill:#333;}.cls-9{fill:#cda691;}.cls-10{fill:#ffac81;}</style></defs><title>Thomas</title><rect class="cls-1" width="1000" height="1000"/><polygon class="cls-2" points="373.18 658.84 495.75 667.31 603.88 695.63 647.52 726.24 578.34 746.63 329.57 714.69 373.18 658.84"/><path class="cls-3" d="M685.21,244c0-50.41-114-169.5-240.28-91.46C277.26,256.22,419.29,445.5,422.81,538Z"/><path class="cls-4" d="M562.17,613.17a147.18,147.18,0,0,0,5.72,45.67c9.55,33.36,34.4,82.5,98.43,91.64,0,0,13,77.92-130.16,77.92s-206.59-87-206.59-87c126.33-38.38,89.72-349,89.72-349l25.42-50.68V272.29c3.2-54.88,92.75-79.45,141.4-79.45s99.1,30.39,99.1,51.18-8.63,109.46-8.63,109.46S705.37,536.66,603.88,615a232.48,232.48,0,0,1-41.7-1.85Z"/><path class="cls-5" d="M578.33,755.13l55.32-21.34C652.92,745.47,799,774.34,799,774.34s-113.61,98.91-267,98.91S218.39,755.13,218.39,755.13s92.29-15.85,133.06-43.34l173.77,44.88,30.46,60.24,22.65-61.78"/><path class="cls-6" d="M562.18,613.17h0c-34.33-4.47-81.07-18-104.67-57.31,0,0,13.56,90.36,110.39,103-3.09-9.5-5.82-29-5.72-45.67h0"/><ellipse cx="626.02" cy="364.37" rx="9.06" ry="21.45"/><ellipse cx="543.85" cy="364.37" rx="9.06" ry="21.45"/><path class="cls-6" d="M586.11,353.48V460.59s22.67.6,35.55-9.58Z"/><path class="cls-7" d="M509.07,473.61s38.12,24.93,111.66,18.77c0,0-1.26,31.91-5.71,45.48C615,537.86,523.57,543.79,509.07,473.61Z"/><path class="cls-6" d="M620.73,492.38c11-.87,26.79-6.61,26.79-6.61l-27.73,21.37Z"/><path class="cls-8" d="M488.27,330.92l73.9-34.64S506.39,282.88,488.27,330.92Z"/><path class="cls-8" d="M609.37,296l57,30.43S648.4,284.74,609.37,296Z"/><path class="cls-6" d="M437.9,326.09c-6.34-7.23-20.89-18.32-35.29-15.34s-34.72,87.69,17.27,115.38,25.26-18.63,27.2-38.72S459.32,350.51,437.9,326.09Z"/><path class="cls-9" d="M404.16,339.2a8.84,8.84,0,0,1,13.27-5.46c5.9,3.71,12.31,9.27,12.9,16.17,1.13,13-9.86,38.39-4.05,55.36a44.81,44.81,0,0,1-24.07-33.83C400.39,359.31,402.21,347.38,404.16,339.2Z"/><polygon class="cls-10" points="312.98 718.81 373.18 658.84 525.22 756.67 467.41 842.95 312.98 718.81"/><polygon class="cls-10" points="603.88 695.63 578.34 755.13 637.84 833.4 647.52 726.24 603.88 695.63"/></svg>