<svg xmlns="http://www.w3.org/2000/svg" viewBox="0 0 24.97 46.85"><title>2Fichier 40</title><g id="Calque_2" data-name="Calque 2"><g id="Calque_1-2" data-name="Calque 1"><path d="M7.6,28.16a11.69,11.69,0,0,1,.72-4.39,8.69,8.69,0,0,1,1.78-2.83,23.79,23.79,0,0,1,2.74-2.31,24.31,24.31,0,0,0,2.3-1.85,6.72,6.72,0,0,0,1.41-2,6.52,6.52,0,0,0,.58-2.85,5,5,0,0,0-1.51-3.87,5.67,5.67,0,0,0-4-1.38A7.55,7.55,0,0,0,7.12,8.07a8.68,8.68,0,0,0-2.84,3.15L0,5.37A14.86,14.86,0,0,1,4.88,1.58,15.14,15.14,0,0,1,11.82,0q6.57,0,9.86,2.88T25,11.16a9.51,9.51,0,0,1-.67,3.72,8.3,8.3,0,0,1-1.66,2.59A28.29,28.29,0,0,1,20,19.9a28.19,28.19,0,0,0-3,2.68,10.22,10.22,0,0,0-1.91,3.11,11.85,11.85,0,0,0-.79,4.58v1.81H8A21.16,21.16,0,0,1,7.6,28.16ZM8,37.87h6.81v9H8Z"/></g></g></svg>