<svg xmlns="http://www.w3.org/2000/svg" viewBox="0 0 60.23 86.88"><defs><style>.cls-1{fill:none;}</style></defs><title>2Fichier 11</title><g id="Calque_2" data-name="Calque 2"><g id="Calque_1-2" data-name="Calque 1"><g id="Cloche"><path class="cls-1" d="M48.3,30c0-11.35-7.23-20.58-18.57-20.58S11.15,18.67,11.15,30"/><path d="M29.73,4.44h0A23.58,23.58,0,0,0,6.15,28V67h0a5,5,0,0,0,5-5V28.42c0-10.1,7.88-18.68,18-19,11.6-.33,19.18,9,19.18,20.57V67h5V28A23.58,23.58,0,0,0,29.73,4.44Z"/><path d="M35,5A5,5,0,1,0,25,5Z"/><path d="M47,79.3a7.59,7.59,0,0,1-15.18,0Z"/><path d="M55.23,62h-14a2.5,2.5,0,0,0-2.5,2.5h0a2.5,2.5,0,0,0,2.5,2.5h12a2,2,0,0,1,2,2v3.48a2,2,0,0,1-2,2H7a2,2,0,0,1-2-2V69a2,2,0,0,1,2-2H7a4.15,4.15,0,0,0,4.15-4.15V62H5a5,5,0,0,0-5,5v7.48a5,5,0,0,0,5,5H55.23a5,5,0,0,0,5-5V67A5,5,0,0,0,55.23,62Z"/></g></g></g></svg>