<svg xmlns="http://www.w3.org/2000/svg" width="20" height="20" viewBox="0 0 20 20">
    <g transform="translate(-3378 -4016)">
        <g transform="translate(3378 4016.002)">
            <g>
                <g>
                    <circle  cx="2.417" cy="2.417" r="2.417" transform="translate(7.583 7.583)"/>
                    <path d="M10.877 1.176v1.881a1.176 1.176 0 00.844 1.129 6.177 6.177 0 011.176.489 1.176 1.176 0 001.4-.207l1.323-1.324 1.241 1.241-1.324 1.324a1.176 1.176 0 00-.2 1.394 5.951 5.951 0 01.489 1.176 1.176 1.176 0 001.129.844h1.881v1.754h-1.881a1.176 1.176 0 00-1.129.844 6.031 6.031 0 01-.489 1.176 1.176 1.176 0 00.2 1.392l1.324 1.324-1.241 1.241-1.32-1.317a1.176 1.176 0 00-1.392-.2 6.031 6.031 0 01-1.176.489 1.176 1.176 0 00-.844 1.129v1.881H9.123v-1.881a1.176 1.176 0 00-.844-1.129 5.951 5.951 0 01-1.179-.489 1.176 1.176 0 00-1.394.2l-1.321 1.324-1.241-1.241 1.323-1.32a1.176 1.176 0 00.2-1.392 6.177 6.177 0 01-.489-1.176 1.176 1.176 0 00-1.122-.851h-1.88V9.123h1.881a1.176 1.176 0 001.129-.844A6.1 6.1 0 014.674 7.1a1.176 1.176 0 00-.207-1.4L3.144 4.38l1.241-1.241L5.7 4.467a1.176 1.176 0 001.394.2 6.1 6.1 0 011.176-.489 1.176 1.176 0 00.849-1.122v-1.88h1.754M11.051 0H8.935a1 1 0 00-.988 1v2.057a7.186 7.186 0 00-1.411.585L5.088 2.184a1 1 0 00-1.411 0L2.184 3.673a1 1 0 000 1.411L3.63 6.529a7.185 7.185 0 00-.585 1.411H1a1 1 0 00-1 1.007v2.116a1 1 0 001 1h2.057a7.186 7.186 0 00.585 1.411l-1.458 1.438a1 1 0 000 1.411l1.488 1.488a1 1 0 001.411 0l1.446-1.446a7.186 7.186 0 001.411.585V19a1 1 0 001 1h2.116a1 1 0 001-1v-2.05a7.186 7.186 0 001.411-.585l1.446 1.446a1 1 0 001.411 0l1.488-1.488a1 1 0 000-1.411l-1.446-1.446a7.185 7.185 0 00.585-1.411H19a1 1 0 001-1v-2.12a1 1 0 00-1-1h-2.045a7.185 7.185 0 00-.585-1.411l1.446-1.446a1 1 0 000-1.411l-1.489-1.483a1 1 0 00-1.411 0L13.47 3.63a7.185 7.185 0 00-1.411-.585V1a1 1 0 00-1.009-1z" />
                </g>
            </g>
        </g>
    </g>
</svg>
