<svg xmlns="http://www.w3.org/2000/svg" viewBox="0 0 90.1 85.06"><title>2Fichier 8</title><g id="Calque_2" data-name="Calque 2"><g id="Calque_1-2" data-name="Calque 1"><g id="Dashboard"><path d="M35.1,60.06v20H5.1v-20h30m3-5H2.1a2,2,0,0,0-2,2v26a2,2,0,0,0,2,2h36a2,2,0,0,0,2-2v-26a2,2,0,0,0-2-2Z"/><path d="M35,5V40H5V5H35m3-5H2A2,2,0,0,0,0,2V43a2,2,0,0,0,2,2H38a2,2,0,0,0,2-2V2a2,2,0,0,0-2-2Z"/><path d="M85.1,45.06v35h-30v-35h30m3-5h-36a2,2,0,0,0-2,2v41a2,2,0,0,0,2,2h36a2,2,0,0,0,2-2v-41a2,2,0,0,0-2-2Z"/><rect x="52.6" y="2.5" width="35" height="25"/><path d="M85.1,5V25h-30V5h30m3-5h-36a2,2,0,0,0-2,2V28a2,2,0,0,0,2,2h36a2,2,0,0,0,2-2V2a2,2,0,0,0-2-2Z"/></g></g></g></svg>