<svg xmlns="http://www.w3.org/2000/svg" viewBox="0 0 86.08 85.02"><defs><style>.cls-1{fill:none;}.cls-1,.cls-2,.cls-3,.cls-5{stroke:#000;stroke-linecap:round;stroke-linejoin:round;}.cls-1,.cls-2,.cls-3{stroke-width:5px;}.cls-3,.cls-4{fill:#fff;}</style></defs><title>2Fichier 24</title><g id="Calque_2" data-name="Calque 2"><g id="Calque_1-2" data-name="Calque 1"><g id="Document"><path class="cls-1" d="M12.46,20.3V77.5a5,5,0,0,0,5,5h19.1"/><path class="cls-1" d="M73.46,64.65V7.5a5,5,0,0,0-5-5H7.5"/><path class="cls-2" d="M7.5,2.5h0a5,5,0,0,1,5,5V20.3a0,0,0,0,1,0,0H2.5a0,0,0,0,1,0,0V7.5A5,5,0,0,1,7.5,2.5Z"/><path class="cls-1" d="M18.56,82.45a5,5,0,0,0,5-5V64.65l59.9.07v12.8a5,5,0,0,1-5,5H18.56"/><line class="cls-3" x1="22.46" y1="28.71" x2="63.46" y2="28.71"/><line class="cls-3" x1="22.46" y1="38.71" x2="63.46" y2="38.71"/><path class="cls-4" d="M63.46,33.57S54.28,42.09,43,42.09s-20.5-8.52-20.5-8.52,9.18-8.52,20.5-8.52S63.46,33.57,63.46,33.57Z"/><path d="M43,47.1c-13.13,0-23.47-9.46-23.9-9.86a5,5,0,0,1,0-7.33c.43-.4,10.77-9.86,23.9-9.86s23.47,9.46,23.9,9.86a5,5,0,0,1,0,7.33C66.43,37.64,56.08,47.1,43,47.1ZM31.1,33.57A24.62,24.62,0,0,0,43,37.1a24.65,24.65,0,0,0,11.86-3.53A24.76,24.76,0,0,0,43,30.05,24.76,24.76,0,0,0,31.1,33.57Z"/><path class="cls-4" d="M43,22.55c12.16,0,21.8,8.82,22.2,9.19a2.5,2.5,0,0,1,0,3.67c-.4.37-10,9.19-22.2,9.19s-21.8-8.82-22.2-9.19a2.5,2.5,0,0,1,0-3.67c.4-.37,10-9.19,22.2-9.19M43,39.6c7,0,13.25-3.7,16.48-6-3.23-2.32-9.47-6-16.48-6s-13.26,3.7-16.48,6c3.22,2.32,9.47,6,16.48,6m0-22c-13.86,0-24.44,9.45-25.6,10.53a7.49,7.49,0,0,0,0,11C18.52,40.15,29.1,49.6,43,49.6s24.44-9.45,25.6-10.53a7.49,7.49,0,0,0,0-11C67.4,27,56.82,17.55,43,17.55Zm-5.83,16a18.44,18.44,0,0,1,5.83-1,18.49,18.49,0,0,1,5.83,1,17,17,0,0,1-11.66,0Z"/><circle cx="42.96" cy="33.57" r="8.52"/><line class="cls-3" x1="22.46" y1="18.71" x2="63.46" y2="18.71"/><line class="cls-3" x1="22.46" y1="48.71" x2="63.46" y2="48.71"/><polygon class="cls-5" points="85.58 48.85 82.49 58.85 79.41 48.85 79.41 10.45 85.58 10.45 85.58 48.85"/><rect class="cls-5" x="79.41" y="2.5" width="6.17" height="3.95"/></g></g></g></svg>