<svg xmlns="http://www.w3.org/2000/svg" viewBox="0 0 85.06 85.06"><title>2Fichier 1afhapi</title><g id="Calque_2" data-name="Calque 2"><g id="Calque_1-2" data-name="Calque 1"><g id="Parametres"><circle cx="42.53" cy="42.53" r="10.28"/><path d="M46.26,5v8a5,5,0,0,0,3.59,4.8,26.27,26.27,0,0,1,5,2.08A5,5,0,0,0,60.8,19l5.63-5.63,5.28,5.28-5.63,5.63a5,5,0,0,0-.85,5.93,25.31,25.31,0,0,1,2.08,5,5,5,0,0,0,4.8,3.59h8v7.46h-8a5,5,0,0,0-4.8,3.59,25.65,25.65,0,0,1-2.08,5,5,5,0,0,0,.85,5.92l5.63,5.63-5.28,5.28L60.8,66.08a5,5,0,0,0-5.92-.85,25.65,25.65,0,0,1-5,2.08,5,5,0,0,0-3.59,4.8v8H38.8v-8a5,5,0,0,0-3.59-4.8,25.31,25.31,0,0,1-5-2.08,5,5,0,0,0-5.93.85l-5.63,5.63-5.28-5.28L19,60.8a5,5,0,0,0,.85-5.92,26.27,26.27,0,0,1-2.08-5A5,5,0,0,0,13,46.26H5V38.8h8a5,5,0,0,0,4.8-3.59,25.92,25.92,0,0,1,2.08-5A5,5,0,0,0,19,24.26l-5.63-5.63,5.28-5.28L24.26,19a5,5,0,0,0,5.93.85,25.92,25.92,0,0,1,5-2.08A5,5,0,0,0,38.8,13V5h7.46M47,0h-9A4.25,4.25,0,0,0,33.8,4.25V13a30.56,30.56,0,0,0-6,2.49L21.64,9.29a4.25,4.25,0,0,0-6,0L9.29,15.62a4.26,4.26,0,0,0,0,6l6.15,6.15a30.56,30.56,0,0,0-2.49,6H4.25A4.25,4.25,0,0,0,0,38.05v9a4.25,4.25,0,0,0,4.25,4.25H13a30.56,30.56,0,0,0,2.49,6L9.29,63.42a4.26,4.26,0,0,0,0,6l6.33,6.33a4.25,4.25,0,0,0,6,0l6.15-6.15a30.56,30.56,0,0,0,6,2.49v8.7a4.25,4.25,0,0,0,4.25,4.25h9a4.25,4.25,0,0,0,4.25-4.25v-8.7a30.56,30.56,0,0,0,6-2.49l6.15,6.15a4.25,4.25,0,0,0,6,0l6.33-6.33a4.26,4.26,0,0,0,0-6l-6.15-6.15a30.56,30.56,0,0,0,2.49-6h8.7A4.25,4.25,0,0,0,85.06,47v-9a4.25,4.25,0,0,0-4.25-4.25h-8.7a30.56,30.56,0,0,0-2.49-6l6.15-6.15a4.26,4.26,0,0,0,0-6L69.44,9.29a4.25,4.25,0,0,0-6,0l-6.15,6.15a30.56,30.56,0,0,0-6-2.49V4.25A4.25,4.25,0,0,0,47,0Z"/></g></g></g></svg>