<svg xmlns="http://www.w3.org/2000/svg" viewBox="0 0 86.08 85.02"><defs><style>.cls-1{fill:none;}.cls-1,.cls-2,.cls-3,.cls-4{stroke:#000;stroke-linecap:round;stroke-linejoin:round;}.cls-1,.cls-2,.cls-3{stroke-width:5px;}.cls-3{fill:#fff;}</style></defs><title>2Fichier 30</title><g id="Calque_2" data-name="Calque 2"><g id="Calque_1-2" data-name="Calque 1"><g id="Document"><path class="cls-1" d="M12.46,20.3V77.5a5,5,0,0,0,5,5h19.1"/><path class="cls-1" d="M73.46,50.86V7.5a5,5,0,0,0-5-5H7.5"/><line class="cls-1" x1="73.46" y1="64.65" x2="73.46" y2="50.86"/><path class="cls-2" d="M7.5,2.5h0a5,5,0,0,1,5,5V20.3a0,0,0,0,1,0,0H2.5a0,0,0,0,1,0,0V7.5a5,5,0,0,1,5-5Z"/><path class="cls-1" d="M18.56,82.45a5,5,0,0,0,5-5V64.65l59.9.07v12.8a5,5,0,0,1-5,5H18.56"/><line class="cls-3" x1="22.46" y1="28.71" x2="63.46" y2="28.71"/><line class="cls-3" x1="22.46" y1="18.71" x2="63.46" y2="18.71"/><line class="cls-1" x1="33.2" y1="37.32" x2="51.99" y2="56.04"/><line class="cls-1" x1="51.99" y1="37.32" x2="33.2" y2="56.04"/><polygon class="cls-4" points="85.58 48.85 82.49 58.85 79.41 48.85 79.41 10.45 85.58 10.45 85.58 48.85"/><rect class="cls-4" x="79.41" y="2.5" width="6.17" height="3.95"/></g></g></g></svg>