<svg xmlns="http://www.w3.org/2000/svg" viewBox="0 0 100 100"><defs><style>.cls-1,.cls-2{fill:none;}.cls-2{stroke:#000;stroke-miterlimit:10;stroke-width:5px;}</style></defs><title>2Fichier 45</title><g id="Calque_2" data-name="Calque 2"><g id="Calque_1-2" data-name="Calque 1"><rect class="cls-1" width="100" height="100"/><path class="cls-2" d="M88,45H12a1.9,1.9,0,0,1-2-1.78V6.78A1.9,1.9,0,0,1,12,5H88a1.9,1.9,0,0,1,2,1.78V43.22A1.9,1.9,0,0,1,88,45Z"/><path class="cls-2" d="M12,95a2,2,0,0,1-2-2V56.78A1.9,1.9,0,0,1,12,55H88a1.9,1.9,0,0,1,2,1.78V93a2,2,0,0,1-2,2Z"/></g></g></svg>