<svg xmlns="http://www.w3.org/2000/svg" width="21.998" height="21.998" viewBox="0 0 21.998 21.998">
  <g id="Parametres" transform="translate(1 1)">
    <g id="Icon_feather-settings" data-name="Icon feather-settings">
      <path id="Tracé_55" data-name="Tracé 55" d="M18.954,16.227A2.727,2.727,0,1,1,16.227,13.5,2.727,2.727,0,0,1,18.954,16.227Z" transform="translate(-6.228 -6.228)" fill="none" stroke="#ddd" stroke-linecap="round" stroke-linejoin="round" stroke-width="2"/>
      <path id="Tracé_56" data-name="Tracé 56" d="M18.225,14.226a1.5,1.5,0,0,0,.3,1.654l.055.055a1.819,1.819,0,1,1-2.572,2.572l-.055-.055a1.512,1.512,0,0,0-2.563,1.073v.155a1.818,1.818,0,1,1-3.636,0V19.6a1.5,1.5,0,0,0-.982-1.373,1.5,1.5,0,0,0-1.654.3l-.055.055a1.819,1.819,0,1,1-2.572-2.572l.055-.055a1.512,1.512,0,0,0-1.073-2.563H3.318a1.818,1.818,0,1,1,0-3.636H3.4a1.5,1.5,0,0,0,1.373-.982,1.5,1.5,0,0,0-.3-1.654l-.055-.055A1.819,1.819,0,1,1,6.99,4.491l.055.055a1.5,1.5,0,0,0,1.654.3h.073a1.5,1.5,0,0,0,.909-1.373V3.318a1.818,1.818,0,1,1,3.636,0V3.4A1.512,1.512,0,0,0,15.88,4.472l.055-.055A1.819,1.819,0,1,1,18.507,6.99l-.055.055a1.5,1.5,0,0,0-.3,1.654v.073a1.5,1.5,0,0,0,1.373.909h.155a1.818,1.818,0,1,1,0,3.636H19.6a1.5,1.5,0,0,0-1.373.909Z" transform="translate(-1.5 -1.5)" fill="none" stroke="#ddd" stroke-linecap="round" stroke-linejoin="round" stroke-width="2"/>
    </g>
  </g>
</svg>
