<svg xmlns="http://www.w3.org/2000/svg" viewBox="0 0 46.35 49.67"><defs><style>.cls-1{fill:#ffac81;}.cls-2{fill:#245a96;}.cls-3{fill:#fff;}.cls-4{opacity:0.2;}</style></defs><title>2Fichier 3afhapi</title><g id="Calque_2" data-name="Calque 2"><g id="Calque_1-2" data-name="Calque 1"><path class="cls-1" d="M0,25.45a14.36,14.36,0,0,0,28.72,0Z"/><rect class="cls-2" x="17.63" y="25.45" width="11.09" height="24.22"/><path class="cls-1" d="M17.63,14.36H46.35a14.36,14.36,0,1,0-28.72,0Z"/><path class="cls-3" d="M28.72,14.36h6.53a3.27,3.27,0,1,0-6.53,0Z"/><path class="cls-3" d="M17.44,25.45H11.28a3.08,3.08,0,1,0,6.16,0Z"/><path class="cls-2" d="M10,14.36H46.35a0,0,0,0,1,0,0v1.13a10,10,0,0,1-10,10H0a0,0,0,0,1,0,0V24.32A10,10,0,0,1,10,14.36Z" transform="translate(46.35 39.81) rotate(-180)"/><polygon class="cls-4" points="17.63 25.45 17.63 31 28.72 25.45 17.63 25.45"/><circle class="cls-3" cx="23.18" cy="44.09" r="1.81"/><circle class="cls-3" cx="23.18" cy="37.39" r="1.12"/></g></g></svg>