<svg id="Calque_1" data-name="Calque 1" xmlns="http://www.w3.org/2000/svg" viewBox="0 0 79.18 77.14"><defs><style>.cls-1,.cls-7,.cls-8{fill:#ffac81;}.cls-2,.cls-5{fill:#245a96;}.cls-3{fill:#fff;}.cls-4{opacity:0.2;}.cls-5{font-size:20px;font-family:Alatsi-Regular, Alatsi;}.cls-6{letter-spacing:-0.05em;}.cls-7{letter-spacing:0em;}.cls-8{letter-spacing:-0.02em;}</style></defs><title>Logo</title><path class="cls-1" d="M23,88.84a14.36,14.36,0,0,0,28.72,0Z" transform="translate(-6.55 -63.39)"/><rect class="cls-2" x="34.04" y="25.45" width="11.09" height="24.22"/><path class="cls-1" d="M40.59,77.75H69.31a14.36,14.36,0,1,0-28.72,0Z" transform="translate(-6.55 -63.39)"/><path class="cls-3" d="M51.68,77.75h6.54a3.27,3.27,0,0,0-6.54,0Z" transform="translate(-6.55 -63.39)"/><path class="cls-3" d="M40.41,88.84H34.24a3.09,3.09,0,0,0,6.17,0Z" transform="translate(-6.55 -63.39)"/><path class="cls-2" d="M32.93,77.75H69.31a0,0,0,0,1,0,0v1.13a10,10,0,0,1-10,10H23a0,0,0,0,1,0,0V87.71A10,10,0,0,1,32.93,77.75Z" transform="translate(85.72 103.2) rotate(-180)"/><polygon class="cls-4" points="34.04 25.45 34.04 31 45.13 25.45 34.04 25.45"/><circle class="cls-3" cx="39.59" cy="44.09" r="1.81"/><circle class="cls-3" cx="39.59" cy="37.39" r="1.12"/><text class="cls-5" transform="translate(0 71.64)"><tspan class="cls-6">T</tspan><tspan x="8.74" y="0">ext</tspan><tspan class="cls-7" x="36.4" y="0">Sty</tspan><tspan class="cls-8" x="63.72" y="0">l</tspan><tspan class="cls-1" x="68.8" y="0">e</tspan></text></svg>